<?xml version="1.0" encoding="utf-8"?>
<!-- Generator: Adobe Illustrator 16.0.0, SVG Export Plug-In . SVG Version: 6.00 Build 0)  -->
<!DOCTYPE svg PUBLIC "-//W3C//DTD SVG 1.1//EN" "http://www.w3.org/Graphics/SVG/1.1/DTD/svg11.dtd">
<svg version="1.1" id="coronadr" xmlns="http://www.w3.org/2000/svg" xmlns:xlink="http://www.w3.org/1999/xlink" x="0px" y="0px"
	 width="200px" height="372px" viewBox="0 0 200 372" enable-background="new 0 0 200 372" xml:space="preserve">
<g>
	<path fill="#404040" d="M108.164,8.051c-5.244-5.54-13.924-7.515-21.405-6.157C72.872,4.418,64.545,16.935,62.607,30.363
		c-0.959,6.648-0.243,12.722,0.478,19.281c0.42,3.826,1.203,7.606-1.202,10.895c-2.205,3.013-4.972,4.347-6.194,8.251
		c-1.011,3.229-1.01,7.14-0.342,10.453c0.536,2.658,2.999,6.318,2.358,9.162c-0.394,1.746-2.06,2.472-3.187,3.701
		c-5.97,6.504-5.708,17.284-2.44,24.987c5.651,13.319,24.271,20.266,37.549,21.955c7.881,1.002,14.976,0.756,22.464-1.646
		c5.758-1.849,10.088-4.496,14.922-8.163c3.658-2.774,8.168-4.673,12.848-4.202c6.455,0.647,12.156,2.034,17.311-3.512
		c5.781-6.216,6.004-15.358,1.461-22.328c-2.449-3.756-7.703-6.334-7.188-11.096c0.529-4.937,4.217-8.691,3.268-13.936
		c-1.131-6.25-6.553-9.612-8.451-15.144c-1.205-3.509,0.195-8.717,0.666-12.601c1.502-12.411,1.955-29.098-7.736-38.613
		c-4.635-4.548-8.422-7.111-14.975-6.781c-4.332,0.218-7.906,1.054-11.113,4.014C111.9,6.153,110.949,7.503,108.164,8.051z"/>
	<path fill="#FFFFFF" d="M65.822,185.933c0.142,0.747,0.296,1.483,0.44,2.207c-0.927,0-1.795-0.201-2.602-0.581
		C64.443,187.132,65.168,186.573,65.822,185.933z"/>
	<path fill="#A7A7A7" d="M48.985,187.048c0.023,0.642,0.047,1.282,0.06,1.936c-0.12-0.071-0.238-0.142-0.345-0.226
		C48.866,187.844,48.961,187.227,48.985,187.048z"/>
	<path fill="#A7A7A7" d="M48.985,187.036c0,0,0,0,0,0.012c-0.023,0.179-0.119,0.796-0.285,1.71c-0.82-0.593-1.283-1.4-1.116-2.161
		c0.131-0.617,0.628-1.092,1.34-1.365C48.948,185.825,48.973,186.432,48.985,187.036z"/>
	<path fill="#A7A7A7" d="M54.495,188.177c-0.333,1.163-2.043,1.78-3.907,1.389c-0.57-0.119-1.104-0.32-1.543-0.582
		c-0.013-0.653-0.037-1.294-0.06-1.936c0-0.012,0-0.012,0-0.012c-0.012-0.604-0.037-1.211-0.06-1.805
		c0.713-0.261,1.639-0.332,2.601-0.13c1.924,0.403,3.266,1.722,3.005,2.956C54.518,188.093,54.505,188.14,54.495,188.177z"/>
	<path fill="#A7A7A7" d="M72.649,185.505c-0.023-0.012-0.037-0.036-0.048-0.061c-0.641-1.091,0.226-2.778,1.935-3.751
		c1.698-0.986,3.587-0.891,4.217,0.201c0.628,1.093-0.238,2.767-1.936,3.753C75.155,186.597,73.303,186.537,72.649,185.505z"/>
	<path fill="#C5C5C5" d="M150.752,158.314c-1.365-2.197-3.787-3.657-6.564-3.657c-0.037,0-0.074,0-0.107,0
		c0.594-0.273,1.26-0.427,1.959-0.427C148.438,154.23,150.42,156.01,150.752,158.314z"/>
	<path fill="#A7A7A7" d="M150.752,158.314c0.725,1.174,1.152,2.564,1.152,4.06c0,4.263-3.455,7.718-7.717,7.718
		c-4.264,0-7.719-3.455-7.719-7.718c0-4.227,3.395-7.659,7.611-7.717c-1.662,0.749-2.803,2.41-2.803,4.334
		c0,2.636,2.127,4.762,4.762,4.762c2.623,0,4.76-2.125,4.76-4.762C150.799,158.765,150.789,158.527,150.752,158.314z"/>
	<path fill="#C5C5C5" d="M150.752,158.314c0.037,0.213,0.047,0.451,0.047,0.677c0,2.636-2.137,4.762-4.76,4.762
		c-2.635,0-4.762-2.125-4.762-4.762c0-1.924,1.141-3.585,2.803-4.334c0.033,0,0.07,0,0.107,0
		C146.965,154.657,149.387,156.118,150.752,158.314z"/>
	<path fill="#EBEBEB" d="M134.805,116.863c1.938,0.392,4.193,1.234,6.283,2.161c3.836,1.663,7.146,3.598,7.146,3.598l-7.49-15.897
		c-6.234-4.18-11.15-8.36-13.785-10.722c-0.035-0.037-0.059-0.048-0.059-0.048c-1.33-1.199-2.055-1.911-2.055-1.911l3.266,10.151
		c1.412,4.381,1.732,9.037,0.912,13.561c-1.863,10.436-5.342,31.038-7.182,48.824l1.723,0.178
		c5.057-9.498,16.074-24.815,21.514-32.201c1.934-2.623,3.156-4.251,3.156-4.251l-5.176-5.177L134.805,116.863z"/>
	<path fill="#FFFFFF" d="M185.293,233.237l-4.012-47.875c-7.576-70.647-21.02-68.583-21.02-68.583
		c-7.111-2.457-13.854-6.257-19.518-10.056l7.49,15.897c0,0-3.311-1.935-7.146-3.598c-2.09-0.926-4.346-1.769-6.283-2.161
		l8.254,8.264l5.176,5.177c0,0-1.223,1.628-3.156,4.251c-5.439,7.386-16.457,22.703-21.514,32.201l-1.723-0.178
		c-0.76,7.184-1.236,13.916-1.236,19.331l19.08,67.915l-14.27,7.41v37.759h58.273l1.688-62.942
		C185.4,235.112,185.377,234.175,185.293,233.237z M144.188,170.092c-4.264,0-7.719-3.455-7.719-7.718
		c0-4.227,3.395-7.659,7.611-7.717c0.594-0.273,1.26-0.427,1.959-0.427c2.398,0,4.381,1.78,4.713,4.084
		c0.725,1.174,1.152,2.564,1.152,4.06C151.904,166.637,148.449,170.092,144.188,170.092z"/>
	<path fill="#004DC4" d="M70.084,242.177C65.845,237.95,49.4,224.794,49.4,224.794c-2.054-3.182-4.108-5.983-5.865-8.228
		l5.865-3.396l20.506-11.838l29.067-16.79l10.33-5.961l7.955-4.594l3.348,11.922l19.08,67.915l-14.27,7.41l-11.043,5.734
		l-6.602,3.433l-7.635-5.688l-4.298-7.768c-0.179-0.318,0.201-0.652,0.498-0.438l12.279,9.178c0.414,0.321,0.9,0.465,1.389,0.465
		c0.664,0,1.316-0.284,1.779-0.83c0.797-0.951,0.713-2.352-0.189-3.195l-14.331-13.382c-1.129-1.056-2.623-1.65-4.181-1.65H82.706
		c-1.092,0-2.172-0.189-3.194-0.546l-12.111-4.298C68.932,241.797,69.942,242.13,70.084,242.177z"/>
	<path fill="#009FF8" d="M109.303,178.582l-10.33,5.961c-0.819-1.97-1.615-3.894-2.363-5.782
		c-14.367-36.025-16.088-58.668-14.498-72.037c0,0,2.018,4.844,5.581,11.208v1.733h0.998c4.237,7.279,10.306,16.029,17.584,21.788
		c0,0,8.264-10.128,14.891-21.776h3.68v-7.064c1.354-2.862,2.48-5.711,3.266-8.419c1.412,4.381,1.732,9.037,0.912,13.561
		c-1.863,10.436-5.342,31.038-7.182,48.824c-0.76,7.184-1.236,13.916-1.236,19.331l-3.348-11.922L109.303,178.582z"/>
	<polygon fill="#009FF8" points="125.416,261.234 125.416,298.993 115.643,298.993 115.643,297.936 115.643,269.427 
		114.373,266.969 	"/>
	<path fill="#009FF8" d="M124.846,112.613v7.064h-3.68C122.482,117.362,123.74,114.976,124.846,112.613z"/>
	<path fill="#009FF8" d="M115.643,297.936v1.058h-11.09l-2.896-16.459c0.605-0.225,1.07-0.724,1.234-1.363l0.213-0.808l2.031,0.309
		c0.273,0.047,0.545,0.036,0.82-0.023l0.131-0.023c1.08-0.228,1.828-1.199,1.828-2.258c0-0.214-0.037-0.426-0.096-0.64l0.143,0.083
		c0.393,0.225,0.832,0.332,1.258,0.332c0.844,0,1.676-0.415,2.148-1.188c0.357-0.569,0.477-1.257,0.322-1.923l-0.285-1.187
		c-0.143-0.582-0.475-1.092-0.951-1.45l-2.682-1.993l6.602-3.433l1.27,2.458V297.936z"/>
	<path fill="#FFB1B3" d="M65.952,259.857l-8.798-4.834c3.894-9.308,7.765-12.063,10.247-12.774l12.111,4.298
		c1.021,0.356,2.102,0.546,3.194,0.546h10.377c1.558,0,3.052,0.595,4.181,1.65l14.331,13.382c0.902,0.844,0.986,2.244,0.189,3.195
		c-0.463,0.546-1.115,0.83-1.779,0.83c-0.488,0-0.975-0.144-1.389-0.465l-12.279-9.178c-0.297-0.214-0.677,0.12-0.498,0.438
		l4.298,7.768l7.635,5.688l2.682,1.993c0.477,0.358,0.809,0.868,0.951,1.45l0.285,1.187c0.154,0.666,0.035,1.354-0.322,1.923
		c-0.473,0.773-1.305,1.188-2.148,1.188c-0.426,0-0.865-0.107-1.258-0.332l-0.143-0.083c0.059,0.214,0.096,0.426,0.096,0.64
		c0,1.059-0.748,2.03-1.828,2.258l-0.131,0.023c-0.275,0.06-0.547,0.07-0.82,0.023l-2.031-0.309l-0.213,0.808
		c-0.164,0.64-0.629,1.139-1.234,1.363c-0.213,0.084-0.451,0.131-0.701,0.131c-0.107,0-0.213-0.011-0.309-0.023l-2.624-0.416
		c-0.298-0.047-0.583,0.097-0.713,0.358c-0.32,0.664-0.985,1.068-1.722,1.068c-0.071,0-0.131,0-0.201-0.013l-10.923-1.14
		l-0.975-0.106c-0.606-0.061-1.176-0.345-1.603-0.784c-1.234-1.316-2.232-2.827-2.956-4.476l-5.058-11.506
		c-0.536-1.223-1.461-2.233-2.636-2.873L65.952,259.857z"/>
	<path fill="#FFFFFF" d="M101.656,282.534l2.896,16.459h-51.84L84.464,282.5l10.923,1.14c0.07,0.013,0.13,0.013,0.201,0.013
		c0.736,0,1.401-0.404,1.722-1.068c0.13-0.262,0.415-0.405,0.713-0.358l2.624,0.416c0.096,0.013,0.201,0.023,0.309,0.023
		C101.205,282.665,101.443,282.618,101.656,282.534z"/>
	<path fill="#EBEBEB" d="M69.027,137.298l9.024-11.173c-3.941-2.279-15.531,2.826-15.531,2.826
		c2.861-7.16,8.133-19.853,10.484-25.516c3.277-4.096,6.14-6.613,6.947-7.302l-0.013-0.012c4.477-3.468,7.517-5.807,7.742-5.986
		c-0.25,0.286-4.179,4.904-5.569,16.589c-1.591,13.369,0.131,36.012,14.498,72.037l-2.553,1.021l-21.967-26.8l-7.918-9.677
		L69.027,137.298z"/>
	<path fill="#009FF8" d="M88.691,119.666h-0.998v-1.733C88.014,118.49,88.346,119.072,88.691,119.666z"/>
	<path fill="#004DC4" d="M84.464,282.5l-31.751,16.493l-9.748-39.337l9.641,9.771c0,0,7.825,0.262,13.346-9.569l5.284,2.897
		c1.175,0.64,2.101,1.65,2.636,2.873l5.058,11.506c0.724,1.648,1.722,3.159,2.956,4.476c0.427,0.439,0.997,0.724,1.603,0.784
		L84.464,282.5z"/>
	<path fill="#EBEBEB" d="M79.939,96.121l0.013,0.012c-0.807,0.688-3.669,3.206-6.947,7.302c0.69-1.663,1.129-2.72,1.176-2.85
		c0.012-0.012,0.012-0.012,0.012-0.012C76.271,98.958,78.217,97.462,79.939,96.121z"/>
	<path fill="#FFFFFF" d="M78.051,126.125l-9.024,11.173c-3.348-5.807-8.252-5.497-8.252-5.497
		c1.33-12.444,7.267-22.192,12.229-28.366c-2.351,5.663-7.624,18.356-10.484,25.516C62.521,128.951,74.11,123.846,78.051,126.125z"
		/>
	<path fill="#FFFFFF" d="M43.535,216.566c-2.851-3.67-4.927-5.865-4.927-5.865c6.245-3.611,9.213-17.075,10.092-21.943
		c-0.82-0.593-1.283-1.4-1.116-2.161c0.131-0.617,0.628-1.092,1.34-1.365c0.713-0.261,1.639-0.332,2.601-0.13
		c1.924,0.403,3.266,1.722,3.005,2.956c-0.012,0.035-0.025,0.082-0.036,0.119c-0.333,1.162-2.043,1.78-3.907,1.389
		c-0.57-0.119-1.104-0.32-1.543-0.582c0.225,7.195,0.355,15.234,0.355,24.187l20.506-11.838l29.067-16.79
		c-0.819-1.97-1.615-3.894-2.363-5.782l-2.553,1.021l-21.967-26.8l-7.918-9.677l4.855-6.007c-3.348-5.807-8.252-5.497-8.252-5.497
		c1.33-12.444,7.267-22.192,12.229-28.366c0.69-1.663,1.129-2.72,1.176-2.85c-6.115,4.726-13.417,10.377-19.912,15.4
		c0,0-9.63,2.755-17.289,10.864c-3.74,3.966-7.004,9.191-8.465,16.006l-7.635,17.74c-1.175,2.73-1.78,5.676-1.78,8.655
		c0,2.422-0.333,4.82-0.975,7.125c-0.64,2.315-1.591,4.524-2.837,6.601L6.727,197.2c-1.484,2.457-2.042,5.378-1.555,8.217
		l0.664,3.882c0.167,0.938,0.251,1.888,0.251,2.851v4.748c0,3.443,1.353,6.733,3.763,9.191l33.116,33.567l9.641,9.771
		c1.46-6.009,3.004-10.722,4.548-14.403c3.894-9.308,7.765-12.063,10.247-12.774c1.531-0.452,2.541-0.119,2.683-0.072
		C65.845,237.95,49.4,224.794,49.4,224.794C47.347,221.612,45.292,218.811,43.535,216.566z M74.536,181.693
		c1.698-0.986,3.587-0.891,4.217,0.201c0.63,1.093-0.238,2.767-1.936,3.753c-1.662,0.949-3.514,0.89-4.167-0.143
		c-0.023-0.012-0.037-0.036-0.048-0.061C71.96,184.353,72.827,182.667,74.536,181.693z M65.822,185.933
		c0.142,0.747,0.296,1.483,0.44,2.207c-0.927,0-1.793-0.201-2.602-0.581C64.443,187.132,65.168,186.573,65.822,185.933z"/>
	<path fill="#9A9A9A" d="M57.154,255.023l8.798,4.834c-5.521,9.831-13.346,9.569-13.346,9.569
		C54.066,263.418,55.61,258.705,57.154,255.023z"/>
	<polygon fill="#FFFFFF" points="42.965,259.656 52.713,298.993 39.509,298.993 	"/>
	<path fill="#6A6A69" d="M39.509,127.011c0.94,0.784,1.507,1.908,2.059,2.979c0.546,1.091,0.979,2.228,1.416,3.364
		c0.772,2.303,1.437,4.644,1.972,7.01c1.113,4.727,1.79,9.533,2.404,14.333c0.256,2.409,0.517,4.815,0.689,7.229
		c0.188,2.411,0.427,4.82,0.494,7.239c0.093,2.418,0.246,4.831,0.279,7.249c0.015,2.419,0.071,4.836,0.048,7.254
		c-0.491-4.814-0.81-9.631-1.271-14.436c-0.426-4.806-0.849-9.61-1.461-14.39c-0.22-2.401-0.6-4.779-0.895-7.169
		c-0.379-2.376-0.762-4.752-1.209-7.116c-0.418-2.368-0.977-4.707-1.621-7.021c-0.344-1.148-0.686-2.302-1.141-3.414
		C40.798,129.033,40.35,127.883,39.509,127.011z"/>
	<path fill="#E46368" d="M91.588,268.965c1.943,0.936,3.814,1.985,5.646,3.096l-0.058-0.028c3.441,1.449,6.835,3.012,10.066,4.935
		c-3.596-1.103-7.03-2.57-10.416-4.148L96.79,272.8l-0.021-0.013C94.991,271.593,93.253,270.336,91.588,268.965z"/>
	<path fill="#E46368" d="M87.167,274.799c1.438,0.794,2.851,1.674,4.235,2.602l-0.155-0.07c2.01,0.345,4.024,0.692,5.994,1.223
		c1.976,0.512,3.932,1.1,5.858,1.813c-2.041-0.22-4.05-0.563-6.042-0.98l-2.988-0.619c-0.996-0.203-1.988-0.434-2.978-0.668
		l-0.097-0.024l-0.061-0.047C89.654,277.012,88.398,275.948,87.167,274.799z"/>
	<path fill="#6A6A69" d="M138.229,177.74c-0.322,3.001-0.773,5.975-1.246,8.947c-0.461,2.973-1.014,5.929-1.568,8.884
		c-0.582,2.949-1.168,5.899-1.848,8.831l-1.021,4.396c-0.387,1.456-0.73,2.921-1.152,4.371c0.148-1.503,0.375-2.99,0.559-4.486
		l0.686-4.461c0.461-2.973,1.014-5.929,1.568-8.884c0.584-2.949,1.17-5.899,1.85-8.831
		C136.721,183.574,137.408,180.645,138.229,177.74z"/>
	<path fill="#6A6A69" d="M61.627,164.641c0.338,1.416,0.695,2.823,1.063,4.229l1.011,4.239c0.679,2.825,1.27,5.668,1.863,8.51
		c0.564,2.849,1.13,5.696,1.604,8.564l0.708,4.301c0.193,1.442,0.428,2.877,0.585,4.327c-0.431-1.395-0.782-2.804-1.175-4.205
		l-1.045-4.233c-0.692-2.822-1.291-5.665-1.883-8.508c-0.562-2.85-1.122-5.701-1.581-8.571
		C62.322,170.424,61.823,167.555,61.627,164.641z"/>
	<path fill="#404040" d="M52.023,152.341c-0.568,0-1.079-0.396-1.202-0.974c-0.102-0.473-2.411-11.629,2.276-17.419
		c1.815-2.244,4.399-3.383,7.678-3.383c0.065-0.009,3.403-0.178,6.623,2.721c3.558,3.208,5.527,8.751,5.848,16.477
		c0.029,0.679-0.499,1.254-1.178,1.283c-0.686,0.039-1.253-0.5-1.282-1.178c-0.287-6.895-2.009-11.976-4.979-14.697
		c-2.438-2.234-4.864-2.141-4.964-2.145c-2.602,0.003-4.488,0.812-5.834,2.473c-3.955,4.887-1.803,15.252-1.78,15.355
		c0.143,0.667-0.284,1.321-0.947,1.46C52.196,152.332,52.108,152.341,52.023,152.341z"/>
	<path fill="#C5C5C5" d="M66.475,188.646c-0.973,0-1.912-0.201-2.815-0.605c-10.34-4.627-11.951-34.629-12.015-35.905l1.23-0.06
		c0.016,0.305,1.63,30.521,11.286,34.843c2.461,1.097,5.326,0.35,8.52-2.23l0.773,0.957
		C70.98,187.645,68.643,188.646,66.475,188.646z"/>
	<path fill="#C5C5C5" d="M58.604,189.42c-1.386,0-2.861-0.229-4.42-0.688l0.347-1.181c4.069,1.196,7.467,0.695,10.099-1.493
		c9.44-7.851,6.802-34.615,6.774-34.886l1.224-0.125c0.117,1.127,2.73,27.691-7.211,35.957
		C63.482,188.612,61.201,189.419,58.604,189.42z"/>
	<path fill="#404040" d="M145.803,155.463c-0.029,0-0.059-0.001-0.088-0.004c-0.678-0.047-1.188-0.636-1.141-1.314
		c2.641-37.563-20.9-60.352-21.137-60.578c-0.494-0.467-0.516-1.246-0.047-1.738c0.465-0.494,1.244-0.515,1.738-0.048
		c0.248,0.232,24.625,23.775,21.9,62.539C146.984,154.968,146.445,155.463,145.803,155.463z"/>
	<path fill="#6A6A69" d="M165.717,129.167c-0.148,4.577-0.668,9.104-1.277,13.617c-0.645,4.508-1.385,9.003-2.498,13.446
		c0.146-4.578,0.668-9.104,1.281-13.616C163.871,138.106,164.609,133.611,165.717,129.167z"/>
	<path fill="#6A6A69" d="M160.053,135.146c1.377,13.654,2.621,27.321,3.842,40.987l3.498,41.03
		c0.193,3.475-0.045,6.972-0.697,10.388c-0.68,3.425-1.732,6.688-2.459,10.008c-0.717,3.319-1.139,6.704-1.244,10.1
		c-0.127,3.394,0.191,6.795,0.377,10.23l1.24,20.546l1.107,20.553l-1.711-20.514l-1.58-20.52c-0.25-3.409-0.621-6.853-0.5-10.325
		c0.09-3.462,0.502-6.914,1.213-10.306c0.725-3.387,1.764-6.678,2.398-9.989c0.619-3.325,0.828-6.726,0.627-10.102l-3.209-41.022
		C161.93,162.527,160.926,148.843,160.053,135.146z"/>
	<path fill="#6A6A69" d="M146.16,233.578c-0.287,4.935-0.709,9.854-1.15,14.773c-0.438,4.917-0.986,9.823-1.473,14.737
		c-0.588,4.901-1.123,9.811-1.762,14.706l-0.979,7.342c-0.371,2.442-0.701,4.891-1.109,7.328c0.131-2.469,0.34-4.93,0.51-7.394
		l0.639-7.381c0.441-4.917,0.986-9.823,1.479-14.737c0.59-4.901,1.121-9.811,1.76-14.706S145.367,238.457,146.16,233.578z"/>
	<path fill="#004DC4" d="M106.275,151.109c0.986,4.526,1.602,9.093,2.127,13.67c0.488,4.582,0.883,9.173,0.906,13.805
		c-0.99-4.525-1.605-9.093-2.129-13.67C106.693,160.333,106.299,155.741,106.275,151.109z"/>
	<path fill="#004DC4" d="M115.646,269.43c0.484,4.75,0.596,9.502,0.617,14.254c-0.018,4.75-0.131,9.502-0.617,14.252
		c-0.486-4.75-0.598-9.502-0.615-14.252C115.053,278.932,115.164,274.18,115.646,269.43z"/>
	<path fill="#404040" d="M60.303,134.966c-0.029,0-0.055-0.001-0.084-0.002c-0.678-0.046-1.191-0.632-1.146-1.31
		c0.824-12.377,8.639-24.438,15.048-32.376c6.899-8.543,13.499-14.117,13.777-14.351c0.521-0.436,1.298-0.37,1.733,0.152
		c0.438,0.521,0.37,1.295-0.149,1.734c-0.266,0.222-26.45,22.467-27.954,45.004C61.486,134.467,60.945,134.966,60.303,134.966z"/>
	<path fill="#6A6A69" d="M15.267,207.587c1.928-0.548,3.935-0.82,5.939-0.901c2.008-0.1,4.026,0.004,6.023,0.263
		c1.993,0.27,3.975,0.679,5.885,1.317c1.927,0.578,3.755,1.455,5.493,2.436c-1.931-0.541-3.821-1.098-5.747-1.509
		c-1.915-0.437-3.847-0.781-5.791-1.024c-1.941-0.277-3.899-0.429-5.866-0.525C19.241,207.562,17.266,207.511,15.267,207.587z"/>
	<path fill="#6A6A69" d="M19.105,193.063c4.119,1.313,8.007,3.306,11.566,5.801c1.771,1.257,3.456,2.673,4.891,4.336
		c1.43,1.637,2.675,3.574,3.046,5.73c-0.836-2.007-2.26-3.598-3.744-5.072c-1.513-1.459-3.165-2.783-4.906-3.992
		c-1.722-1.231-3.509-2.389-5.329-3.505C22.804,195.257,20.973,194.144,19.105,193.063z"/>
	<path fill="#6A6A69" d="M164.219,235.188c0.824,2.64,1.518,5.309,2.191,7.981c0.684,2.669,1.277,5.359,1.867,8.05
		c0.564,2.696,1.127,5.393,1.592,8.109l0.697,4.076c0.188,1.366,0.418,2.725,0.57,4.102c-0.424-1.316-0.771-2.651-1.16-3.977
		l-1.033-4.005c-0.684-2.668-1.277-5.358-1.867-8.05c-0.563-2.695-1.123-5.392-1.588-8.108
		C165.008,240.652,164.547,237.936,164.219,235.188z"/>
	<circle fill="#FF959A" cx="79.029" cy="51.322" r="6.637"/>
	<path fill="#FFB1B3" d="M79.677,24.368l-0.01,42.805c0,7.468,3.075,14.212,8.026,19.045c4.797,4.678,11.352,7.563,18.583,7.563
		c7.219,0,13.773-2.874,18.57-7.563c4.963-4.821,8.037-11.578,8.037-19.034l0.014-42.816H79.677z"/>
	<path fill="#404040" d="M75.891,44.332c3.962,1.645,10.297-1.65,13.61-3.889c2.242-1.515,4.564-2.995,6.556-4.824
		c1.042-0.958,2.061-2.447,3.206-2.943c-1.328,2.32-3.601,4.42-4.662,6.862c1.76,1.364,4.69-0.6,6.48-1.425
		c4.025-1.852,7.816-4.169,11.104-7.169c2.6-2.372,4.912-4.906,7.301-7.438c-2.311,5.027,0.652,11.234,4.17,15.025
		c0.057-1.091,0.016-2.254,0.094-3.335c2.32,4.741,5.141,8.516,10.492,10.141c2.24,0.679,3.904,1.121,4.639-0.797
		c1.629-4.26-1.332-11.549-2.678-15.408c-2.063-5.902-5.271-11.118-11.324-13.451c-8.09-3.118-17.734-0.664-25.841,1.262
		c-8.116,1.928-23.016,5.037-24.948,14.983C73.449,35.212,73.689,40.843,75.891,44.332z"/>
	<path fill="#FFB1B3" d="M128.115,104.199c-0.785,2.708-1.912,5.557-3.266,8.419c-0.381,0.819-0.785,1.65-1.211,2.48
		c-0.785,1.544-1.615,3.075-2.471,4.584c-6.625,11.648-14.889,21.776-14.889,21.776C99,135.7,92.934,126.949,88.694,119.671
		c-0.344-0.595-0.677-1.176-0.997-1.734c-3.563-6.364-5.581-11.209-5.581-11.209c1.389-11.684,5.319-16.303,5.569-16.587
		c0.012-0.012,0.012-0.012,0.012-0.012v-3.907c3.502,3.42,7.943,5.878,12.895,6.947c0.012,0,0.035,0.012,0.047,0.012
		c0.439,0.095,0.891,0.189,1.342,0.249c0.785,0.143,1.592,0.238,2.398,0.285c0.189,0.012,0.369,0.023,0.559,0.035
		c0.439,0.023,0.889,0.037,1.342,0.037c7.219,0,13.773-2.874,18.57-7.565v7.825L128.115,104.199z"/>
	<g>
		<path fill="#FF959A" d="M128.115,104.199c-0.785,2.708-1.912,5.557-3.266,8.419c-0.381,0.819-0.785,1.65-1.211,2.48
			c-13.418-3.418-20.043-14.532-23.047-21.93c0.012,0,0.035,0.012,0.047,0.012c0.439,0.095,0.891,0.177,1.342,0.249
			c0.785,0.131,1.592,0.226,2.398,0.285c0.189,0.012,0.369,0.023,0.559,0.035c0.439,0.023,0.889,0.037,1.342,0.037
			c7.219,0,13.773-2.874,18.57-7.565v7.825L128.115,104.199z"/>
	</g>
</g>
</svg>
