<?xml version="1.0" encoding="utf-8"?>
<!-- Generator: Adobe Illustrator 16.0.0, SVG Export Plug-In . SVG Version: 6.00 Build 0)  -->
<!DOCTYPE svg PUBLIC "-//W3C//DTD SVG 1.1//EN" "http://www.w3.org/Graphics/SVG/1.1/DTD/svg11.dtd">
<svg version="1.1" id="coronadr" xmlns="http://www.w3.org/2000/svg" xmlns:xlink="http://www.w3.org/1999/xlink" x="0px" y="0px"
	 width="200px" height="372px" viewBox="0 0 200 372" enable-background="new 0 0 200 372" xml:space="preserve">
<g>
	<path fill="#009FF8" d="M207.229,210.063l-4.765,2.002l-18.06-42.992c-0.553-1.315,0.065-2.83,1.381-3.382l0,0
		c1.317-0.554,2.832,0.064,3.383,1.381L207.229,210.063z"/>
	<path fill="#6A3E2C" d="M153.399,73.778c0.165,2.735-0.61,5.4-0.302,8.169c0.386,3.495,2.18,6.662,3.013,10.056
		c0.668,2.715,1.536,5.752,1.143,8.567c-0.366,2.653-1.972,4.95-2.521,7.515c-1.44,6.74,4.844,9.958,8.318,14.711
		c2.94,4.025,3.598,7.12,3.417,11.753c-0.081,2.083,2.335,8.104,1.33,9.246c-2.841,3.226-10.474-3.686-12.287-5.324
		c-4.171-3.773-5.937-2.613-11.106-0.69c-6.038,2.247-13.097,0.744-17.903-3.944c-4.718-4.602-3.295-14.513-2.587-20.209
		c1.396-11.214,4.487-21.962,11.025-31.357C139.613,75.561,145.235,72.259,153.399,73.778z"/>
	<path fill="#6A3E2C" d="M134.621,16.338c-15.543-3.318-29.826-9.23-45.196-1.165c-7.188,3.772-13.944,8.018-16.832,15.988
		c-1.495,4.13-3.445,7.256-5.099,11.466c-4.304,10.937,5.035,20.354-7.529,26.568c-4.375,2.167-8.914,3.223-11.585,7.467
		c-2.972,4.715-0.691,9.958-2.414,14.813c-2.729,7.684-18.849,11.007-16.585,20.363c0.866,3.592,4.386,5.859,7.824,6.518
		c7.27,1.391,11.934-1.457,17.247,5.139c4.769,5.914,6.296,5.466,14.467,5.953c5.602,0.335,10.765,2.497,16.108,3.97
		c5.352,1.478,12.047,4.697,17.729,4.888c9.758,0.329,10.267-15.441,12.041-22.652c3.525-14.309,4.929-28.882,6.821-43.49
		c1.947-15.037,7.208-29.291,11.149-43.78C133.662,25.089,135.021,20.504,134.621,16.338z"/>
	<path fill="#008390" d="M156.5,224.598c-0.01,0-0.017,0-0.026-0.002c-0.262-0.034-26.476-3.847-46.045-35.038
		c-0.142-0.277-13.103-26.231-20.682-29.334c-0.097-0.039-0.142-0.151-0.104-0.248c0.039-0.098,0.155-0.148,0.245-0.104
		c7.714,3.156,20.338,28.423,20.874,29.499c10.166,16.199,22.065,24.815,30.264,29.187c8.105,4.325,14.278,5.466,15.339,5.636
		c5.444-18.608-2.95-72.166-3.04-72.707c-0.017-0.104,0.055-0.202,0.159-0.218c0.104-0.018,0.2,0.053,0.219,0.16
		c0.088,0.543,8.546,54.494,2.981,73.035C156.659,224.543,156.58,224.598,156.5,224.598z"/>
	<path fill="#004DC4" d="M300.688,201.527l-51.093,67.442l-0.766-0.767l-9.923-4.967c-1.697-0.84-3.743-0.282-4.762,1.313
		c-0.398,0.604-0.572,1.297-0.572,1.973c0,0.99,0.395,1.978,1.146,2.702l1.432,1.34l-4.439-3.716
		c-1.429-1.209-3.552-1.046-4.789,0.355c-0.574,0.647-0.868,1.459-0.868,2.268c0,0.93,0.367,1.828,1.074,2.507l5.794,5.515
		l5.515,7.429c0.192,0.264-0.119,0.605-0.4,0.442l-9.789-5.661l-4.483-3.391c-1.232-0.943-2.987-0.856-4.125,0.206
		c-0.664,0.619-1.001,1.476-1.001,2.33c0,0.721,0.25,1.46,0.753,2.063l3.935,4.687l3.567,2.949l-3.523-2.476
		c-1.354-0.944-3.23-0.664-4.231,0.663c-0.427,0.56-0.634,1.208-0.634,1.856c0,0.768,0.278,1.519,0.825,2.108l3.583,3.863
		l4.305,3.935L215.69,313.71l-2.683,3.539l-28.438-0.884l-47.113-1.475c1.415-1.415,17.912-23.292,36.529-48.13
		c13.665-18.222,28.466-38.05,39.288-52.571h0.012c1.519-2.047,2.965-3.979,4.305-5.793h0.015c1.09-1.459,2.123-2.844,3.084-4.125
		c0.938-1.27,1.826-2.449,2.637-3.54c3.699-4.968,5.881-7.9,5.881-7.9L300.688,201.527z"/>
	<path fill="#FF8E67" d="M236.151,270.563l-1.432-1.34c-0.752-0.725-1.146-1.712-1.146-2.702c0-0.676,0.174-1.368,0.572-1.973
		c1.019-1.595,3.064-2.152,4.762-1.313l9.923,4.967l0.766,0.767l10.04,10.04c0.764,0.768,1.118,1.856,0.955,2.918l-0.295,1.931
		c-0.19,1.224-0.928,2.301-2.005,2.919c-0.765,0.444-1.147,1.344-0.911,2.213l0.884,3.374c0.426,1.579-0.281,3.26-1.694,4.087
		l-0.237,0.131c-1.344,0.765-2.137,2.18-2.137,3.685c0,0.238,0.012,0.473,0.059,0.709c0.235,1.385-0.308,2.769-1.416,3.627
		l-1.268,0.985c-0.973,0.753-1.783,1.683-2.506,2.685c-3.083,4.262-8.696,4.022-11.396,3.627c-0.898-0.134-1.813-0.09-2.667,0.22
		c-3.201-3.198-2.286-8.417-2.286-8.846l-2.139-1.711l-3.359-3.065l-4.305-3.935l-3.583-3.863c-0.547-0.59-0.825-1.341-0.825-2.108
		c0-0.648,0.207-1.297,0.634-1.856c1.001-1.327,2.877-1.607,4.231-0.663l3.523,2.476l-3.567-2.949l-3.935-4.687
		c-0.503-0.604-0.753-1.343-0.753-2.063c0-0.854,0.337-1.711,1.001-2.33c1.138-1.063,2.893-1.149,4.125-0.206l4.483,3.391
		l9.789,5.661c0.281,0.163,0.593-0.179,0.4-0.442l-5.515-7.429l-5.794-5.515c-0.707-0.679-1.074-1.577-1.074-2.507
		c0-0.809,0.294-1.62,0.868-2.268c1.237-1.401,3.36-1.564,4.789-0.355L236.151,270.563z"/>
	<path fill="#FF8E67" d="M230.577,301.563l2.139,1.711c0,0.429-0.915,5.647,2.286,8.846c-5.633,2.049-19.312,1.591-19.312,1.591
		l11.527-15.213L230.577,301.563z"/>
	<path fill="#00DAF5" d="M73.713,267.672l1.517,6.178c0.769,3.095,3.909,4.983,7.003,4.187l1.165-0.295l35.1-9.022
		c3.73-0.956,7.328-2.388,10.688-4.243l39.066-21.629c2.771-1.545,4.836-4.126,5.718-7.177l6.71-23.188l1.18-4.085l0.231-1.311
		c0.474-2.639,2.202-4.895,4.63-6.015l0.121-0.06l-0.325-0.692l-7.665-28.51c-0.133-0.487-0.281-0.973-0.456-1.445
		c-4.482-11.853-18.842-22.04-30.517-28.687c-8.713-4.939-15.936-7.916-16.436-8.124c0.735,0.443,12.455,8.477,12.306,67.959h-0.07
		c-0.091-0.044-0.18-0.104-0.267-0.147c-9.671-5.616-17.704-13.651-23.6-23.144c-16.395-26.431-31.889-40.26-41.379-46.965
		c-0.063-0.044-0.122-0.084-0.179-0.127c-1.466-1.033,1.566-5.548-0.133-5.698c-0.761-0.066-9.624,4.877-14.295,7.573
		c-2.436,1.404-5.375,3.106-8.157,4.723c-2.137,1.237-4.48,2.063-6.866,2.653c-3.922,0.943-12.959,3.892-20.789,12.058
		c-9.198,9.582-16.73,26.357-12.381,55.562c0.753,5.068,0.973,10.215,0.649,15.346c-1.46,22.835-5.838,85.81-11.94,123.918h182.175
		l-1.946-30.898l-47.113-1.475c1.415-1.415,17.912-23.292,36.529-48.13l-19.325,14.076c-3.747,2.743-7.387,5.617-10.97,8.564
		c-25.518,21.037-61.885,32.491-61.885,32.491c-6.101,1.93-10.539,4.719-10.539,4.719c-7.96,4.582-13.593,0-13.593,0
		c-9.329-10.704-15.8-29.337-19.958-45.465l-0.574,0.149c0,0-30.958-16.452-13.359-33.215c1.048-1.016,3.157-1.799,4.629-1.799
		c0.973,0,1.83,0.399,2.417,1.019v0.014c0.62,0.635,0.973,1.475,0.973,2.373c0,0.37-0.059,0.752-0.191,1.137
		c0,0,0.059,0.396,0.163,1.15c0.19,0.295,0.515,0.515,0.931,0.56l5.63,0.575c0,0,25.502,2.741,33.877,8.417
		c1.339,0.913,2.254,1.9,2.533,2.979c0.22,0.896,0.016,1.842-0.736,2.859L73.713,267.672z M99.896,198.992
		c0.395-0.383,0.84-0.721,1.31-1.018c0.916-0.561,1.976-0.957,3.127-1.119c4.141-0.591,7.931,1.961,8.458,5.72v0.043
		c1.271,1.461,2.139,3.244,2.422,5.249c0.869,6.06-3.864,11.733-10.556,12.692c-6.707,0.972-12.841-3.155-13.71-9.213
		C90.153,205.787,94.073,200.555,99.896,198.992z"/>
	<path fill="#404040" d="M180.68,216.952c-0.729,0-1.371-0.517-1.508-1.257c-12.067-66.794-47.272-83.645-47.625-83.806
		c-0.767-0.352-1.103-1.258-0.752-2.025c0.35-0.769,1.253-1.106,2.021-0.756c1.504,0.683,36.985,17.532,49.367,86.044
		c0.149,0.829-0.402,1.625-1.231,1.774C180.86,216.945,180.767,216.952,180.68,216.952z"/>
	<path fill="#004D50" d="M74.745,264.505c0.22,0.896,0.016,1.842-0.736,2.859l-0.295,0.308l-1.501-6.146
		C73.551,262.439,74.466,263.427,74.745,264.505z"/>
	<path fill="#004D50" d="M37.716,281.146l-0.574,0.149c0,0-30.958-16.452-13.359-33.215c1.048-1.016,3.157-1.799,4.629-1.799
		c0.973,0,1.83,0.399,2.417,1.019v0.017c0.62,0.632,0.973,1.472,0.973,2.37c0,0.37-0.059,0.752-0.191,1.137
		c-0.042,0.147-0.072,0.296-0.072,0.426c0,0.267,0.072,0.519,0.234,0.725C32.305,255.601,34.177,267.468,37.716,281.146z"/>
	<path fill="#008390" d="M61.089,164.672c2.245,8.117,4.094,16.334,5.79,24.584c1.69,8.25,3.078,16.562,4.379,24.883
		c1.158,8.346,2.156,16.717,2.829,25.115c0.603,8.406,0.904,16.841,0.648,25.257c-0.263-4.205-0.344-8.407-0.743-12.596
		c-0.24-4.193-0.69-8.374-1.077-12.555c-0.911-8.353-1.894-16.694-3.168-24.999c-1.168-8.32-2.58-16.606-4.02-24.888
		c-0.713-4.142-1.468-8.278-2.261-12.406C62.73,172.925,61.894,168.804,61.089,164.672z"/>
	<path fill="#008390" d="M139.783,152.44c0.664,2.25,1.161,4.547,1.667,6.844c0.432,2.307,0.829,4.625,1.164,6.951
		c0.684,4.651,1.079,9.336,1.362,14.023c0.243,4.691,0.374,9.385,0.309,14.078c-0.06,4.69-0.23,9.379-0.618,14.057
		c-0.147-2.343-0.174-4.686-0.31-7.025l-0.251-7.016c-0.211-4.674-0.379-9.343-0.658-14.008c-0.241-4.665-0.596-9.32-0.998-13.973
		C141.038,161.719,140.467,157.082,139.783,152.44z"/>
	<path fill="#008390" d="M101.647,153.079c3.732,3.909,7.166,8.099,10.408,12.43c3.266,4.308,6.24,8.864,9.107,13.41
		c2.885,4.493,6.266,8.657,10.021,12.463c3.766,3.798,7.976,7.163,12.483,10.137c-2.419-1.205-4.724-2.635-6.967-4.166
		c-2.212-1.573-4.322-3.289-6.33-5.124c-4.02-3.674-7.519-7.914-10.49-12.479c-2.854-4.6-5.748-9.103-8.774-13.561
		C108.076,161.741,104.897,157.395,101.647,153.079z"/>
	<path fill="#008390" d="M31.871,153.253c-1.071,7.802-1.839,15.627-2.391,23.463c-0.551,7.836-0.954,15.686-0.97,23.538
		c-0.12,3.924-0.031,7.849-0.022,11.775c0.133,3.925,0.217,7.849,0.438,11.77c0.107,1.962,0.172,3.927,0.312,5.887l0.474,5.874
		c0.226,3.929,0.801,7.818,1.115,11.749c-1.398-7.745-2.521-15.565-3.071-23.435c-0.659-7.86-0.825-15.754-0.772-23.643
		c0.146-7.885,0.525-15.77,1.329-23.615c0.405-3.923,0.886-7.835,1.438-11.736C30.375,160.989,30.994,157.094,31.871,153.253z"/>
	<path fill="#008390" d="M78.617,226.446c0.563,4.214,0.958,8.441,1.328,12.667c0.385,4.229,0.655,8.461,0.921,12.693
		c0.23,4.233,0.457,8.472,0.567,12.713l0.159,6.362c-0.004,2.124,0.048,4.248,0,6.375c-0.298-2.107-0.497-4.221-0.746-6.33
		l-0.587-6.339c-0.386-4.226-0.652-8.46-0.918-12.692c-0.229-4.235-0.457-8.471-0.563-12.713
		C78.65,234.941,78.549,230.698,78.617,226.446z"/>
	<path fill="#DB654A" d="M235.33,269.791c1.587,0.762,3.126,1.562,4.635,2.462c1.515,0.898,2.939,1.939,4.299,3.061
		c1.353,1.133,2.59,2.388,3.787,3.646c1.211,1.254,2.368,2.561,3.475,3.922c-1.413-1.039-2.779-2.13-4.092-3.274
		c-1.331-1.135-2.577-2.327-3.906-3.413c-1.311-1.113-2.674-2.167-4.056-3.2C238.071,271.984,236.669,270.922,235.33,269.791z"/>
	<path fill="#DB654A" d="M238.432,284.919c2.241,1.297,4.259,2.858,6.22,4.486c1.94,1.653,3.824,3.375,5.483,5.364
		c-2.241-1.296-4.261-2.857-6.223-4.488C241.977,288.625,240.093,286.904,238.432,284.919z"/>
	<path fill="#DB654A" d="M226.896,288.55c1.515,0.814,2.988,1.688,4.421,2.622c1.431,0.933,2.866,1.866,4.219,2.911
		c2.638,2.167,5.229,4.402,7.588,6.907c-2.933-1.798-5.634-3.862-8.287-5.997c-1.329-1.06-2.73-2.028-4.052-3.106
		C229.449,290.835,228.152,289.724,226.896,288.55z"/>
	<path fill="#DB654A" d="M232.705,303.269c0.276,1.619,0.384,3.12,0.715,4.585c0.308,1.474,0.804,2.817,1.581,4.262
		c-0.7-0.412-1.33-1.001-1.769-1.711c-0.449-0.708-0.742-1.502-0.936-2.309C231.97,306.471,232.087,304.782,232.705,303.269z"/>
	<path fill="#008390" d="M44.449,307.694c0.045,6.177-0.373,12.313-0.902,18.438c-0.577,6.122-1.269,12.232-2.426,18.301
		c-0.048-6.177,0.369-12.313,0.905-18.438C42.604,319.873,43.298,313.762,44.449,307.694z"/>
	<path fill="#008390" d="M99.828,237.326c0.6,6.033,0.74,12.065,0.765,18.096c-0.022,6.033-0.159,12.065-0.765,18.099
		c-0.603-6.033-0.744-12.065-0.763-18.099C99.089,249.392,99.227,243.359,99.828,237.326z"/>
	<path fill="#FF8E67" d="M220.689,204.271c-0.961,1.281-1.994,2.666-3.084,4.125h-0.015c-1.34,1.814-2.786,3.746-4.305,5.793h-0.012
		c-10.822,14.521-25.623,34.35-39.288,52.571l-19.325,14.076c-3.747,2.743-7.387,5.617-10.97,8.564
		c-25.518,21.037-61.885,32.491-61.885,32.491c-6.101,1.93-10.539,4.719-10.539,4.719c-7.96,4.582-13.593,0-13.593,0
		c-9.329-10.704-15.804-29.337-19.958-45.465c-3.539-13.679-5.411-25.546-5.942-29.172c0.19,0.295,0.515,0.515,0.931,0.56
		l5.63,0.575c0,0,25.502,2.741,33.877,8.417l1.501,6.146l1.517,6.178c0.769,3.095,3.909,4.983,7.003,4.187l1.165-0.295l35.1-9.022
		c3.73-0.956,7.328-2.388,10.688-4.243l39.066-21.629c2.771-1.545,4.836-4.126,5.718-7.177l6.71-23.188l1.18-4.085l0.231-1.311
		c0.474-2.639,2.202-4.895,4.63-6.015l0.121-0.06l1.796-0.825c0.369-0.163,0.708-0.354,1.032-0.574l13.873-9.243
		c1.917-1.282,4.436-1.209,6.295,0.178l13.488,10.185C222.516,201.822,221.628,203.002,220.689,204.271z"/>
	<path fill="#DB654A" d="M220.003,203.581c-1.053-0.765-2.059-1.583-3.092-2.373c-0.998-0.868-1.974-1.576-3.181-1.872
		c-1.175-0.301-2.412-0.318-3.558,0.034l-3.633,1.279c-2.451,0.839-4.905,1.673-7.39,2.425c-2.479,0.761-4.963,1.507-7.487,2.132
		c2.369-1.076,4.781-2.028,7.199-2.967c2.416-0.947,4.859-1.811,7.302-2.672c1.244-0.413,2.416-0.841,3.721-1.24
		c1.355-0.345,2.809-0.305,4.108,0.173c1.316,0.425,2.424,1.38,3.292,2.29C218.191,201.723,219.122,202.624,220.003,203.581z"/>
	<path fill="#DB654A" d="M187.973,217.014c2.307-1.6,4.675-3.09,7.052-4.563c2.371-1.484,4.788-2.891,7.205-4.297l3.646-2.066
		c0.603-0.32,1.222-0.712,1.948-0.969c0.707-0.259,1.451-0.395,2.199-0.409c1.488-0.032,2.97,0.412,4.168,1.236
		c1.135,0.818,2.297,1.601,3.414,2.447c-2.532-1.146-4.841-3.177-7.533-2.805c-0.652,0.069-1.289,0.229-1.889,0.47
		c-0.587,0.227-1.149,0.608-1.763,0.973l-3.622,2.115c-2.43,1.381-4.861,2.762-7.335,4.067
		C192.994,214.525,190.513,215.826,187.973,217.014z"/>
	<path fill="#DB654A" d="M213.286,214.188c-2.184,1.357-4.492,2.392-6.834,3.348c-2.354,0.925-4.743,1.765-7.264,2.281
		c2.184-1.356,4.495-2.393,6.837-3.346C208.383,215.55,210.769,214.708,213.286,214.188z"/>
	<path fill="#008390" d="M20.985,170.756c-0.068,4.119-0.302,8.221-0.558,12.321c-0.244,4.099-0.604,8.191-0.967,12.283
		c-0.399,4.084-0.799,8.172-1.317,12.248l-0.785,6.111c-0.314,2.032-0.581,4.07-0.944,6.097c0.021-2.058,0.137-4.109,0.199-6.166
		l0.359-6.152c0.244-4.1,0.604-8.19,0.966-12.281c0.402-4.086,0.802-8.175,1.321-12.248
		C19.763,178.893,20.291,174.815,20.985,170.756z"/>
	<path fill="#404040" d="M101.439,200.688c-0.717,0-1.355-0.509-1.499-1.241c-4.742-24.651-18.021-55.066-18.157-55.371
		c-5.476-10.501-6.763-18.151-3.779-22.646c2.851-4.293,8.346-3.89,8.576-3.876c0.844,0.07,1.47,0.808,1.399,1.649
		c-0.068,0.838-0.815,1.461-1.642,1.397c-0.061-0.009-3.963-0.25-5.799,2.541c-1.582,2.407-2.173,7.765,4.003,19.612
		c0.177,0.399,13.594,31.125,18.403,56.118c0.156,0.828-0.386,1.63-1.213,1.79C101.635,200.678,101.536,200.688,101.439,200.688z"/>
	
		<ellipse transform="matrix(0.9899 -0.142 0.142 0.9899 -28.7274 16.7659)" fill="#A7A7A7" cx="103.074" cy="209.606" rx="12.255" ry="11.073"/>
	
		<ellipse transform="matrix(0.9899 -0.142 0.142 0.9899 -27.8418 17.0106)" fill="#C5C5C5" cx="105.304" cy="203.644" rx="7.564" ry="6.858"/>
	<path fill="#FF8E67" d="M102.666,18.481L95.39,47.234c-0.861-0.304-1.783-0.478-2.747-0.478c-4.55,0-8.242,3.688-8.242,8.239
		c0,4.117,3.023,7.519,6.968,8.131l-4.211,16.637c-1.431,5.674-0.62,11.38,1.873,16.2c0.855,1.651,1.917,3.2,3.155,4.6
		l-3.068,12.118c-0.013,0.072-0.043,0.147-0.059,0.22c-0.649,2.492-1.547,4.525-2.594,6.176c0,0,0,0-0.014,0
		c-2.316,3.672-5.396,5.5-8.329,6.354c-0.249,1.548-0.208,3.45,0.312,5.823c9.49,6.708,24.985,20.536,41.379,46.967
		c5.896,9.492,13.93,17.527,23.6,23.144c0.087,0.046,0.176,0.104,0.267,0.147h0.07c0.149-59.482-11.57-67.516-12.306-67.959
		c-0.017-0.014-0.033-0.014-0.033-0.014l0.782-3.037l4.704-18.619c6.853-2.537,12.383-8.286,14.313-15.921l3.817-15.05
		l11.691-46.215L102.666,18.481z"/>
	<path fill="#6A3E2C" d="M146.679,28.856c-7.876,8.244-17.47,14.719-28.39,18.521c-7.063,2.462-20.966,6.668-27.965,1.475
		c-5.796-4.302-0.684-19.579,2.907-24.893c9.581-14.174,25.747-18.292,41.411-10.674C139.244,15.522,152.015,21.289,146.679,28.856z
		"/>
	<path fill="#6A3E2C" d="M143.434,23.755c-0.005,11.122,4.979,17.62,10.436,26.899c1.933,3.287,3.419,6.662,4.169,10.195
		c0.58,2.74-0.065,6.922,1.716,9.202c4.856-2.385,6.972-11.888,8.82-16.633c2.802-7.206,4.439-14.921,1.947-22.521
		c-2.322-7.084-7.955-13.061-15.61-14.12C148.761,15.927,142.513,19.348,143.434,23.755z"/>
	<path fill="#6A3E2C" d="M91.274,63.01c2.75,2.512,0.591,8.749,0.314,11.972c-0.62,7.248,5.932,10.442,6.276,17.456
		c0.259,5.236-1.72,10.358,0.528,15.522c1.249,2.874,3.842,4.924,4.647,8c0.721,2.756-0.512,5.536,0.137,8.249
		c0.786,3.294,6.568,8.645,4.574,11.908c-2.889,4.733-10.775-1.72-13.455-3.719c-3.938-2.934-5.939-1.247-10.201-0.767
		c-5.08,0.571-8.534,0.447-13.195-1.588c-5.327-2.324-5.673-4.939-5.972-11.065c-0.689-14.303,0.182-27.963,7.468-40.408
		c3.272-5.594,6.34-8.408,12.001-11.3C86.548,66.172,88.651,65.271,91.274,63.01z"/>
	<path fill="#DB654A" d="M136.896,111.885c0,0-15.704,3.543-28.729-5.655c0,0,6.837,19.202,23.276,27.324L136.896,111.885z"/>
</g>
</svg>
