<?xml version="1.0" encoding="utf-8"?>
<!-- Generator: Adobe Illustrator 16.0.0, SVG Export Plug-In . SVG Version: 6.00 Build 0)  -->
<!DOCTYPE svg PUBLIC "-//W3C//DTD SVG 1.1//EN" "http://www.w3.org/Graphics/SVG/1.1/DTD/svg11.dtd">
<svg version="1.1" id="coronadr" xmlns="http://www.w3.org/2000/svg" xmlns:xlink="http://www.w3.org/1999/xlink" x="0px" y="0px"
	 width="200px" height="372px" viewBox="0 0 200 372" enable-background="new 0 0 200 372" xml:space="preserve">
<g>
	<path fill="#009FF8" d="M138.384,132.072l-3.09,1.298l-11.714-27.884c-0.357-0.853,0.043-1.835,0.896-2.194l0,0
		c0.855-0.359,1.838,0.042,2.194,0.896L138.384,132.072z"/>
	<path fill="#6A3E2C" d="M103.471,43.679c0.107,1.774-0.396,3.502-0.195,5.298c0.25,2.267,1.413,4.321,1.954,6.522
		c0.434,1.761,0.996,3.73,0.741,5.556c-0.238,1.721-1.279,3.211-1.635,4.875c-0.935,4.372,3.141,6.458,5.395,9.542
		c1.907,2.611,2.334,4.618,2.217,7.623c-0.053,1.351,1.514,5.256,0.862,5.997c-1.843,2.092-6.793-2.391-7.969-3.453
		c-2.705-2.447-3.851-1.695-7.204-0.447c-3.916,1.458-8.494,0.482-11.612-2.558c-3.06-2.984-2.136-9.413-1.678-13.107
		c0.906-7.273,2.911-14.245,7.151-20.338C94.529,44.836,98.176,42.694,103.471,43.679z"/>
	<path fill="#6A3E2C" d="M91.292,6.424C81.21,4.273,71.947,0.438,61.979,5.669c-4.662,2.447-9.044,5.201-10.917,10.37
		c-0.97,2.679-2.234,4.706-3.307,7.437c-2.791,7.093,3.266,13.201-4.883,17.231c-2.838,1.405-5.781,2.09-7.515,4.843
		c-1.927,3.058-0.448,6.459-1.565,9.607c-1.77,4.984-12.226,7.139-10.757,13.207c0.562,2.33,2.844,3.8,5.074,4.228
		c4.715,0.901,7.741-0.945,11.186,3.333c3.092,3.835,4.083,3.545,9.382,3.86c3.634,0.218,6.982,1.62,10.448,2.576
		c3.472,0.958,7.813,3.046,11.499,3.17c6.329,0.213,6.658-10.015,7.81-14.691c2.286-9.281,3.196-18.733,4.424-28.207
		c1.263-9.753,4.675-18.998,7.231-28.395C90.67,12.101,91.552,9.127,91.292,6.424z"/>
	<path fill="#008390" d="M105.482,141.499c-0.007,0-0.011,0-0.018-0.002c-0.17-0.021-17.172-2.494-29.864-22.725
		c-0.092-0.18-8.499-17.013-13.415-19.026c-0.063-0.025-0.091-0.098-0.067-0.161c0.025-0.063,0.1-0.096,0.159-0.067
		c5.003,2.046,13.19,18.435,13.539,19.132c6.593,10.506,14.311,16.095,19.628,18.929c5.257,2.806,9.261,3.546,9.948,3.656
		c3.531-12.069-1.913-46.807-1.971-47.157c-0.012-0.067,0.035-0.131,0.103-0.142c0.067-0.011,0.13,0.035,0.142,0.104
		c0.057,0.352,5.543,35.343,1.934,47.369C105.585,141.462,105.533,141.499,105.482,141.499z"/>
	<path fill="#004DC4" d="M199,126.535l-33.138,43.742l-0.496-0.497l-6.437-3.222c-1.101-0.544-2.427-0.183-3.088,0.852
		c-0.259,0.392-0.371,0.841-0.371,1.279c0,0.643,0.256,1.283,0.743,1.752l0.928,0.87l-2.879-2.41
		c-0.926-0.784-2.303-0.679-3.106,0.23c-0.372,0.42-0.563,0.946-0.563,1.471c0,0.603,0.238,1.186,0.696,1.626l3.759,3.576
		l3.576,4.818c0.125,0.171-0.077,0.394-0.26,0.287l-6.349-3.672l-2.908-2.198c-0.799-0.613-1.937-0.556-2.676,0.133
		c-0.431,0.401-0.648,0.957-0.648,1.511c0,0.468,0.162,0.947,0.488,1.339l2.552,3.04l2.314,1.913l-2.286-1.606
		c-0.878-0.612-2.096-0.431-2.744,0.43c-0.276,0.363-0.411,0.784-0.411,1.204c0,0.498,0.18,0.985,0.535,1.368l2.324,2.506
		l2.791,2.551l-7.476,9.867l-1.739,2.295l-18.445-0.572l-30.557-0.957c0.918-0.918,11.618-15.107,23.692-31.216
		c8.863-11.818,18.462-24.678,25.481-34.097h0.008c0.984-1.328,1.923-2.58,2.792-3.757h0.009c0.707-0.946,1.378-1.845,2.001-2.676
		c0.608-0.823,1.185-1.588,1.71-2.296c2.398-3.222,3.814-5.124,3.814-5.124L199,126.535z"/>
	<path fill="#FF8E67" d="M157.142,171.311l-0.928-0.87c-0.487-0.469-0.743-1.109-0.743-1.752c0-0.438,0.112-0.888,0.371-1.279
		c0.661-1.034,1.987-1.396,3.088-0.852l6.437,3.222l0.496,0.497l6.512,6.513c0.495,0.497,0.725,1.204,0.619,1.892l-0.191,1.253
		c-0.123,0.793-0.602,1.491-1.3,1.893c-0.496,0.288-0.745,0.872-0.591,1.436l0.573,2.188c0.275,1.024-0.183,2.115-1.1,2.652
		l-0.153,0.084c-0.871,0.496-1.386,1.414-1.386,2.391c0,0.154,0.008,0.307,0.038,0.459c0.152,0.898-0.2,1.795-0.919,2.354
		l-0.821,0.639c-0.631,0.488-1.157,1.092-1.626,1.74c-2,2.764-5.641,2.609-7.391,2.354c-0.583-0.088-1.177-0.059-1.73,0.143
		c-2.076-2.074-1.482-5.459-1.482-5.738l-1.387-1.109l-2.18-1.988l-2.791-2.551l-2.324-2.506c-0.355-0.383-0.535-0.87-0.535-1.368
		c0-0.42,0.135-0.841,0.411-1.204c0.648-0.86,1.866-1.042,2.744-0.43l2.286,1.606l-2.314-1.913l-2.552-3.04
		c-0.326-0.392-0.488-0.871-0.488-1.339c0-0.554,0.218-1.109,0.648-1.511c0.739-0.688,1.877-0.746,2.676-0.133l2.908,2.198
		l6.349,3.672c0.183,0.106,0.385-0.116,0.26-0.287l-3.576-4.818l-3.759-3.576c-0.458-0.44-0.696-1.023-0.696-1.626
		c0-0.524,0.19-1.051,0.563-1.471c0.804-0.909,2.181-1.015,3.106-0.23L157.142,171.311z"/>
	<path fill="#FF8E67" d="M153.527,191.416l1.387,1.109c0,0.279-0.594,3.664,1.482,5.738c-3.653,1.328-12.524,1.031-12.524,1.031
		l7.476-9.867L153.527,191.416z"/>
	<path fill="#00DAF5" d="M51.788,169.436l0.984,4.006c0.499,2.007,2.536,3.232,4.542,2.716l0.756-0.191l22.766-5.852
		c2.419-0.62,4.752-1.55,6.932-2.753l25.337-14.028c1.798-1.001,3.138-2.675,3.709-4.654l4.352-15.039l0.766-2.649l0.149-0.851
		c0.308-1.712,1.429-3.174,3.004-3.901l0.078-0.038l-0.211-0.449l-4.972-18.491c-0.086-0.315-0.183-0.631-0.295-0.937
		c-2.908-7.688-12.221-14.295-19.793-18.606c-5.651-3.203-10.336-5.134-10.66-5.269c0.478,0.288,8.078,5.498,7.981,44.077h-0.046
		c-0.059-0.029-0.116-0.068-0.173-0.096c-6.271-3.643-11.482-8.854-15.307-15.01C71.054,94.276,61.004,85.308,54.849,80.958
		c-0.04-0.028-0.079-0.054-0.115-0.082c-0.952-0.67,1.016-3.598-0.086-3.696c-0.494-0.042-6.242,3.164-9.271,4.912
		c-1.58,0.91-3.485,2.014-5.291,3.063c-1.386,0.803-2.906,1.338-4.454,1.721c-2.543,0.612-8.405,2.523-13.483,7.82
		c-5.966,6.214-10.851,17.095-8.03,36.036c0.488,3.288,0.631,6.626,0.421,9.953c-0.947,14.811-3.787,55.654-7.744,80.371H124.95
		l-1.263-20.039l-30.557-0.957c0.918-0.918,11.618-15.107,23.692-31.216l-12.534,9.13c-2.43,1.779-4.791,3.643-7.115,5.555
		c-16.55,13.643-40.137,21.073-40.137,21.073c-3.957,1.252-6.835,3.061-6.835,3.061c-5.162,2.973-8.816,0-8.816,0
		c-6.051-6.941-10.248-19.027-12.944-29.487l-0.373,0.096c0,0-20.079-10.67-8.664-21.542c0.68-0.658,2.048-1.166,3.002-1.166
		c0.631,0,1.187,0.259,1.567,0.66v0.009c0.402,0.412,0.631,0.956,0.631,1.539c0,0.24-0.038,0.487-0.124,0.737
		c0,0,0.039,0.257,0.105,0.746c0.124,0.191,0.334,0.334,0.604,0.362l3.651,0.373c0,0,16.541,1.778,21.973,5.46
		c0.869,0.592,1.462,1.232,1.643,1.932c0.142,0.581,0.01,1.194-0.478,1.854L51.788,169.436z M68.77,124.891
		c0.256-0.248,0.545-0.467,0.85-0.66c0.594-0.363,1.282-0.621,2.028-0.726c2.686-0.383,5.144,1.272,5.486,3.71v0.027
		c0.824,0.947,1.387,2.104,1.57,3.404c0.564,3.931-2.506,7.61-6.846,8.232c-4.35,0.63-8.329-2.047-8.892-5.976
		C62.451,129.298,64.993,125.904,68.77,124.891z"/>
	<path fill="#404040" d="M121.164,136.539c-0.473,0-0.889-0.334-0.978-0.813c-7.827-43.323-30.66-54.251-30.889-54.356
		c-0.497-0.228-0.716-0.816-0.487-1.313c0.227-0.499,0.813-0.717,1.31-0.49c0.977,0.443,23.988,11.371,32.02,55.807
		c0.097,0.538-0.262,1.054-0.8,1.15C121.281,136.535,121.222,136.539,121.164,136.539z"/>
	<path fill="#004D50" d="M52.458,167.381c0.142,0.581,0.01,1.194-0.478,1.854l-0.191,0.2l-0.974-3.986
		C51.683,166.042,52.276,166.682,52.458,167.381z"/>
	<path fill="#004D50" d="M28.441,178.175l-0.373,0.096c0,0-20.079-10.67-8.664-21.542c0.68-0.658,2.048-1.166,3.002-1.166
		c0.631,0,1.187,0.259,1.567,0.66v0.011c0.402,0.41,0.631,0.954,0.631,1.537c0,0.24-0.038,0.487-0.124,0.737
		c-0.027,0.095-0.046,0.192-0.046,0.276c0,0.173,0.046,0.336,0.152,0.47C24.932,161.606,26.146,169.303,28.441,178.175z"/>
	<path fill="#008390" d="M43.6,102.631c1.456,5.265,2.655,10.595,3.755,15.945c1.096,5.351,1.997,10.741,2.84,16.138
		c0.751,5.413,1.399,10.843,1.835,16.29c0.391,5.451,0.586,10.922,0.421,16.381c-0.171-2.728-0.223-5.453-0.482-8.169
		c-0.155-2.721-0.447-5.432-0.698-8.143c-0.591-5.418-1.229-10.828-2.055-16.215c-0.758-5.396-1.673-10.77-2.607-16.141
		c-0.463-2.687-0.953-5.37-1.466-8.047C44.664,107.984,44.122,105.312,43.6,102.631z"/>
	<path fill="#008390" d="M94.64,94.699c0.431,1.459,0.753,2.949,1.082,4.438c0.279,1.496,0.537,3,0.755,4.508
		c0.442,3.017,0.699,6.056,0.883,9.096c0.158,3.042,0.243,6.086,0.2,9.131c-0.038,3.042-0.149,6.083-0.401,9.117
		c-0.095-1.52-0.112-3.039-0.2-4.557l-0.163-4.551c-0.136-3.031-0.245-6.06-0.427-9.085c-0.156-3.025-0.387-6.044-0.646-9.062
		C95.454,100.716,95.083,97.708,94.64,94.699z"/>
	<path fill="#008390" d="M69.906,95.113c2.421,2.535,4.647,5.253,6.75,8.062c2.118,2.794,4.047,5.749,5.907,8.697
		c1.871,2.914,4.064,5.615,6.5,8.083c2.441,2.463,5.173,4.646,8.096,6.574c-1.568-0.781-3.063-1.708-4.518-2.702
		c-1.436-1.021-2.804-2.133-4.106-3.323c-2.606-2.383-4.876-5.133-6.803-8.095c-1.852-2.983-3.729-5.903-5.691-8.795
		C74.075,100.731,72.013,97.912,69.906,95.113z"/>
	<path fill="#008390" d="M24.649,95.226c-0.694,5.06-1.192,10.136-1.55,15.218c-0.358,5.082-0.62,10.173-0.63,15.266
		c-0.078,2.545-0.021,5.091-0.014,7.638c0.086,2.545,0.141,5.091,0.284,7.633c0.069,1.273,0.112,2.548,0.202,3.818l0.308,3.811
		c0.146,2.548,0.52,5.07,0.723,7.62c-0.907-5.023-1.635-10.096-1.992-15.199c-0.427-5.098-0.535-10.219-0.5-15.334
		c0.094-5.114,0.34-10.228,0.861-15.316c0.263-2.544,0.575-5.082,0.933-7.612C23.68,100.243,24.081,97.716,24.649,95.226z"/>
	<path fill="#008390" d="M54.969,142.698c0.364,2.732,0.62,5.475,0.86,8.215c0.25,2.743,0.426,5.488,0.598,8.232
		c0.149,2.746,0.296,5.495,0.368,8.246l0.103,4.126c-0.003,1.378,0.031,2.756,0,4.135c-0.193-1.367-0.322-2.737-0.484-4.105
		l-0.38-4.111c-0.251-2.74-0.423-5.486-0.596-8.232c-0.149-2.747-0.296-5.493-0.365-8.244
		C54.989,148.208,54.924,145.455,54.969,142.698z"/>
	<path fill="#DB654A" d="M156.61,170.81c1.029,0.494,2.026,1.013,3.005,1.597c0.982,0.582,1.907,1.258,2.789,1.985
		c0.877,0.734,1.679,1.548,2.456,2.364c0.785,0.813,1.536,1.66,2.253,2.543c-0.916-0.674-1.803-1.381-2.653-2.124
		c-0.863-0.735-1.672-1.509-2.533-2.213c-0.851-0.722-1.734-1.406-2.631-2.075C158.388,172.233,157.479,171.543,156.61,170.81z"/>
	<path fill="#DB654A" d="M158.621,180.622c1.454,0.841,2.763,1.854,4.034,2.91c1.259,1.071,2.48,2.188,3.557,3.478
		c-1.454-0.839-2.764-1.852-4.036-2.911C160.92,183.025,159.698,181.909,158.621,180.622z"/>
	<path fill="#DB654A" d="M151.14,182.976c0.982,0.528,1.938,1.095,2.867,1.701c0.928,0.604,1.859,1.21,2.736,1.887
		c1.711,1.406,3.392,2.855,4.922,4.48c-1.902-1.166-3.654-2.506-5.375-3.889c-0.862-0.688-1.771-1.317-2.628-2.015
		C152.796,184.458,151.954,183.738,151.14,182.976z"/>
	<path fill="#DB654A" d="M154.907,192.521c0.18,1.051,0.249,2.025,0.464,2.975c0.199,0.955,0.521,1.828,1.025,2.764
		c-0.454-0.268-0.863-0.648-1.147-1.109c-0.291-0.459-0.481-0.975-0.606-1.498C154.43,194.6,154.507,193.504,154.907,192.521z"/>
	<path fill="#008390" d="M32.808,195.393c0.03,4.006-0.242,7.986-0.585,11.959c-0.374,3.971-0.822,7.934-1.573,11.869
		c-0.032-4.006,0.239-7.986,0.586-11.957C31.611,203.291,32.061,199.328,32.808,195.393z"/>
	<path fill="#008390" d="M68.725,149.754c0.39,3.912,0.48,7.825,0.497,11.736c-0.015,3.912-0.104,7.825-0.497,11.738
		c-0.391-3.913-0.482-7.826-0.495-11.738C68.246,157.58,68.335,153.667,68.725,149.754z"/>
	<path fill="#FF8E67" d="M147.114,128.315c-0.623,0.831-1.294,1.729-2.001,2.676h-0.009c-0.869,1.177-1.808,2.429-2.792,3.757
		h-0.008c-7.02,9.419-16.618,22.278-25.481,34.097l-12.534,9.13c-2.43,1.779-4.791,3.643-7.115,5.555
		c-16.55,13.643-40.137,21.073-40.137,21.073c-3.957,1.252-6.835,3.061-6.835,3.061c-5.162,2.973-8.816,0-8.816,0
		c-6.051-6.941-10.249-19.027-12.944-29.487c-2.295-8.872-3.509-16.569-3.854-18.921c0.124,0.191,0.334,0.334,0.604,0.362
		l3.651,0.373c0,0,16.541,1.778,21.973,5.46l0.974,3.986l0.984,4.006c0.499,2.007,2.536,3.232,4.542,2.716l0.756-0.191l22.766-5.852
		c2.419-0.62,4.752-1.55,6.932-2.753l25.337-14.028c1.798-1.001,3.138-2.675,3.709-4.654l4.352-15.039l0.766-2.649l0.149-0.851
		c0.308-1.712,1.429-3.174,3.004-3.901l0.078-0.038l1.165-0.535c0.239-0.106,0.459-0.23,0.669-0.374l8.998-5.995
		c1.243-0.831,2.877-0.784,4.082,0.115l8.749,6.606C148.299,126.727,147.723,127.492,147.114,128.315z"/>
	<path fill="#DB654A" d="M146.669,127.867c-0.684-0.495-1.335-1.026-2.005-1.539c-0.647-0.563-1.28-1.022-2.063-1.214
		c-0.762-0.195-1.564-0.207-2.308,0.022l-2.355,0.829c-1.591,0.544-3.182,1.085-4.794,1.573c-1.607,0.493-3.218,0.978-4.855,1.383
		c1.536-0.698,3.102-1.315,4.67-1.925c1.566-0.614,3.151-1.174,4.735-1.733c0.807-0.268,1.567-0.545,2.413-0.804
		c0.879-0.224,1.821-0.198,2.665,0.112c0.854,0.275,1.571,0.895,2.134,1.485C145.494,126.662,146.098,127.247,146.669,127.867z"/>
	<path fill="#DB654A" d="M125.895,136.58c1.496-1.037,3.031-2.004,4.574-2.96c1.537-0.962,3.105-1.874,4.673-2.786l2.365-1.341
		c0.391-0.208,0.791-0.461,1.264-0.628c0.458-0.168,0.94-0.256,1.426-0.266c0.965-0.021,1.927,0.268,2.703,0.802
		c0.736,0.53,1.49,1.038,2.214,1.588c-1.642-0.743-3.139-2.061-4.886-1.819c-0.423,0.045-0.835,0.148-1.225,0.305
		c-0.381,0.147-0.746,0.395-1.144,0.631l-2.349,1.371c-1.576,0.896-3.153,1.792-4.758,2.639
		C129.151,134.965,127.542,135.809,125.895,136.58z"/>
	<path fill="#DB654A" d="M142.313,134.746c-1.417,0.881-2.913,1.553-4.433,2.172c-1.526,0.601-3.076,1.145-4.711,1.48
		c1.416-0.88,2.915-1.552,4.435-2.171C139.132,135.63,140.68,135.084,142.313,134.746z"/>
	<path fill="#008390" d="M17.589,106.578c-0.044,2.672-0.196,5.332-0.362,7.991c-0.158,2.659-0.391,5.313-0.627,7.966
		c-0.259,2.649-0.518,5.3-0.854,7.944l-0.509,3.964c-0.204,1.318-0.376,2.64-0.612,3.955c0.013-1.336,0.089-2.666,0.129-4
		l0.233-3.99c0.158-2.659,0.392-5.313,0.626-7.965c0.261-2.65,0.52-5.302,0.857-7.943C16.796,111.855,17.139,109.21,17.589,106.578z
		"/>
	<path fill="#404040" d="M69.771,125.991c-0.466,0-0.88-0.33-0.973-0.806c-3.076-15.988-11.688-35.714-11.776-35.913
		c-3.551-6.81-4.386-11.772-2.451-14.687c1.849-2.785,5.413-2.524,5.563-2.515c0.547,0.045,0.954,0.524,0.907,1.07
		c-0.044,0.543-0.529,0.948-1.065,0.907c-0.039-0.006-2.57-0.162-3.761,1.647c-1.026,1.562-1.409,5.037,2.596,12.72
		c0.115,0.259,8.817,20.187,11.937,36.397c0.102,0.538-0.251,1.058-0.787,1.161C69.898,125.984,69.833,125.991,69.771,125.991z"/>
	
		<ellipse transform="matrix(0.9899 -0.1421 0.1421 0.9899 -18.0059 11.402)" fill="#A7A7A7" cx="70.831" cy="131.774" rx="7.948" ry="7.182"/>
	
		<ellipse transform="matrix(0.9899 -0.1419 0.1419 0.9899 -17.4214 11.5525)" fill="#C5C5C5" cx="72.277" cy="127.908" rx="4.906" ry="4.449"/>
	<path fill="#FF8E67" d="M70.566,7.815l-4.719,18.648c-0.559-0.197-1.157-0.31-1.782-0.31c-2.951,0-5.346,2.393-5.346,5.344
		c0,2.67,1.96,4.876,4.519,5.273l-2.73,10.791c-0.928,3.68-0.403,7.381,1.214,10.507c0.554,1.071,1.243,2.076,2.046,2.983
		l-1.99,7.86c-0.009,0.046-0.028,0.095-0.039,0.143c-0.421,1.616-1.003,2.935-1.682,4.005c0,0,0,0-0.009,0
		c-1.502,2.382-3.5,3.567-5.402,4.121c-0.162,1.004-0.135,2.238,0.202,3.777c6.156,4.351,16.205,13.319,26.838,30.462
		c3.825,6.156,9.035,11.368,15.307,15.01c0.057,0.03,0.114,0.066,0.173,0.096h0.046c0.097-38.579-7.504-43.789-7.981-44.077
		c-0.01-0.01-0.021-0.01-0.021-0.01l0.508-1.969l3.051-12.076c4.444-1.646,8.031-5.374,9.283-10.326l2.476-9.761l7.582-29.975
		L70.566,7.815z"/>
	<path fill="#6A3E2C" d="M99.112,14.543c-5.108,5.347-11.331,9.546-18.413,12.013c-4.581,1.597-13.599,4.325-18.138,0.957
		c-3.76-2.79-0.444-12.699,1.885-16.146c6.214-9.193,16.7-11.864,26.858-6.923C94.29,5.896,102.573,9.636,99.112,14.543z"/>
	<path fill="#6A3E2C" d="M97.008,11.235c-0.004,7.213,3.229,11.428,6.768,17.446c1.254,2.131,2.218,4.321,2.704,6.613
		c0.376,1.777-0.042,4.489,1.112,5.968c3.15-1.547,4.522-7.71,5.721-10.788c1.817-4.673,2.88-9.677,1.264-14.606
		c-1.506-4.595-5.159-8.471-10.124-9.158C100.462,6.158,96.41,8.376,97.008,11.235z"/>
	<path fill="#6A3E2C" d="M63.178,36.695c1.784,1.629,0.383,5.674,0.204,7.765c-0.402,4.7,3.848,6.772,4.071,11.321
		c0.167,3.396-1.116,6.718,0.342,10.067c0.81,1.864,2.491,3.194,3.014,5.189c0.467,1.787-0.331,3.59,0.089,5.35
		c0.509,2.136,4.259,5.607,2.966,7.723c-1.874,3.07-6.988-1.116-8.727-2.412c-2.554-1.903-3.852-0.809-6.616-0.498
		c-3.295,0.371-5.534,0.291-8.559-1.03c-3.454-1.507-3.679-3.204-3.873-7.176c-0.447-9.276,0.119-18.137,4.844-26.208
		c2.122-3.628,4.112-5.453,7.783-7.329C60.112,38.747,61.477,38.162,63.178,36.695z"/>
	<path fill="#DB654A" d="M92.768,68.395c0,0-10.186,2.298-18.634-3.667c0,0,4.435,12.454,15.097,17.722L92.768,68.395z"/>
</g>
</svg>
