<?xml version="1.0" encoding="utf-8"?>
<!-- Generator: Adobe Illustrator 16.0.0, SVG Export Plug-In . SVG Version: 6.00 Build 0)  -->
<!DOCTYPE svg PUBLIC "-//W3C//DTD SVG 1.1//EN" "http://www.w3.org/Graphics/SVG/1.1/DTD/svg11.dtd">
<svg version="1.1" id="coronadr" xmlns="http://www.w3.org/2000/svg" xmlns:xlink="http://www.w3.org/1999/xlink" x="0px" y="0px"
	 width="200px" height="372px" viewBox="0 0 200 372" enable-background="new 0 0 200 372" xml:space="preserve">
<g>
	<path fill="#FFFFFF" d="M52.184,219.588l18.836-8.461v8.338c0,3.529,0.725,7.021,2.13,10.259l0,0
		c-2.199,0.262-3.918,0.16-5.205-0.08c-2.403-0.443-3.371-1.378-3.371-1.378l-1.082-0.968c-1.401-1.241-2.893-2.368-4.476-3.371
		L52.184,219.588z"/>
	<path fill="#004DC4" d="M130.254,29.634c0,0,0.911-24.212-24.565-25.271c0,0-18.541-7.153-27.595,6.537
		c0,0-13.678,2.563-15.113,15.227c-0.285,2.324-0.136,4.988,0.581,8.04c0,0-1.891,18.006,8.427,26.854c0,0-1.958,7.073,5.444,12.699
		v-0.011l-2.949-11.627l-1.788-7.095c0,0,1.97-3.086,1.97-12.425c0,0,11.389-5.398,12.015-11.218c0,0,10.045,2.073,15.808-1.253
		c0,0,7.904,4.511,12.401,5.433c1.8,0.375,3.304,1.594,3.896,3.325c1.242,3.656,3.451,9.543,6.31,15.125v0.011l1.821,7.209
		c0.398,1.56,0.57,3.12,0.536,4.657h0.012c0,0,6.286-1.457,6.286-12.413C133.75,53.438,136.301,41.855,130.254,29.634z"/>
	<path fill="#004DC4" d="M133.75,87.992c-3.576-0.627-9.407-5.592-9.407-5.592l-18.654,24.235l23.552-4.896l0.831-0.172
		c4.34-0.899,7.596-4.498,8.075-8.906l0.158-1.526L133.75,87.992z"/>
	<path fill="#004DC4" d="M89.903,91.612c-1.002,4.896-6.332,9.806-6.332,9.806c-0.08,0.331-0.114,0.661-0.114,0.98
		c0,2.142,1.651,4.008,3.883,4.168l6.469,0.478l2.677,0.194L89.903,91.612z"/>
	<path fill="#FFFFFF" d="M101.52,202.231l-4.236,2.448l-6.65,0.513c-6.561-16.4-3.121-27.595-3.121-27.595s6.571,2.506,20.021-7.778
		c0,0,4.385-3.497,10.284-5.581c4.169-1.457,8.324-5.375,10.421-7.55c0.99-1.025,2.175-1.812,3.497-2.313
		c0.237-0.09,0.488-0.125,0.728-0.125c0.764,0,1.503,0.411,1.879,1.105c0.172,0.319,0.251,0.661,0.251,1.002
		c0,0.354-0.079,0.707-0.251,1.014l-2.629,4.897l-0.376,0.922c-1.025,2.506-2.963,4.521-5.423,5.648l-0.341,0.876
		c-0.581,1.493-0.457,3.235,0.523,4.512c0.114,0.136,0.239,0.272,0.364,0.409l-2.072,6.013l-2.414,8.098l-1.536,0.658
		c-3.534,1.513-6.726,3.722-9.387,6.493l0,0l-3.622,3.782l-4.157,1.538L101.52,202.231z"/>
	<path fill="#00DAF5" d="M188.028,201.093l8.109-25.545c1.708-5.387,2.027-11.116,0.9-16.662l-5.763-28.518
		c-0.467-2.324-1.186-4.578-2.13-6.742c-0.945-2.164-2.118-4.225-3.509-6.151c-3.074-4.258-7.116-7.72-11.798-10.123l-25.84-13.246
		c-2.358-1.208-4.762-2.302-7.21-3.292l-7.039-2.824l4.555,3.142l-0.158,1.526c-0.479,4.408-3.735,8.006-8.075,8.906l-0.831,0.172
		l-23.552,4.896c-3.029,0.626-6.116,0.832-9.202,0.604l-2.677-0.194l-6.469-0.478c-2.232-0.16-3.883-2.027-3.883-4.168
		c0-0.319,0.034-0.649,0.114-0.98l-4.795,4.339l-18.324,8.747c-1.731,0.832-3.622,1.31-5.546,1.412l-1.333,0.069
		c-3.018,0.148-5.922,1.241-8.302,3.12l-1.39,1.105c-2.38,1.867-4.111,4.442-4.966,7.334c-0.638,2.175-1.765,4.156-3.302,5.819
		c-2.335,2.506-3.782,5.706-4.135,9.112l-0.137,1.367l-9.817,18.7L8.235,177.62c-1.287,1.47-2.119,3.303-2.369,5.25l-1.948,15.421
		c-0.262,2.106,0.229,4.236,1.379,6.014l10.25,15.784c1.469,2.255,3.918,3.701,6.605,3.896l13.621,1.003
		c2.471,0.181,4.965-0.252,7.231-1.276l3.542-1.595l0.228,0.523c0,0,5.41,31.706,5.41,33.073c0,0.673-0.638,4.271-1.299,7.779
		c-0.899,4.852-0.456,9.851,1.299,14.463h139.034l0.638-3.689c0.479-2.824,0.342-5.729-0.432-8.497l-6.925-25.02
		c-0.821-2.951-0.729-6.082,0.251-8.986l0.705-2.062c1.298-3.85,0.352-8.098-2.459-11.024l-0.899-0.934l0.682-6.845L188.028,201.093
		z M67.946,229.644c-2.403-0.443-3.371-1.378-3.371-1.378l-1.082-0.968c-1.401-1.241-2.893-2.368-4.476-3.371l-6.833-4.339
		l18.836-8.461v8.338c0,3.529,0.725,7.021,2.13,10.259C70.952,229.985,69.233,229.884,67.946,229.644z M134.342,157.371
		l-2.629,4.897l-0.376,0.922c-1.025,2.506-2.963,4.521-5.423,5.648l-0.341,0.876c-0.581,1.493-0.457,3.235,0.523,4.512
		c0.114,0.136,0.239,0.272,0.364,0.409l-2.073,6.013l-2.413,8.098l-1.536,0.658c-3.534,1.513-6.726,3.722-9.387,6.493l-3.622,3.782
		l-4.157,1.538l-1.753,1.013l-4.236,2.448l-6.65,0.513c-6.561-16.4-3.121-27.595-3.121-27.595s6.571,2.506,20.021-7.778
		c0,0,4.385-3.497,10.284-5.581c4.169-1.457,8.324-5.375,10.421-7.55c0.99-1.025,2.175-1.812,3.497-2.313
		c0.237-0.09,0.488-0.125,0.728-0.125c0.764,0,1.503,0.411,1.879,1.105c0.172,0.319,0.251,0.661,0.251,1.002
		C134.593,156.711,134.514,157.064,134.342,157.371z"/>
	<path fill="#AF614D" d="M124.343,82.398l-18.654,24.236c-3.029,0.626-6.116,0.832-9.202,0.604l-1.606-3.826l-4.977-11.799v-0.011
		l-1.412-5.592c3.246,1.207,6.89,1.468,10.5,0.558l15.079-3.815c0.104-0.022,0.193-0.056,0.296-0.079
		c3.496-0.957,6.458-2.871,8.678-5.41L124.343,82.398z"/>
	<path fill="#AF614D" d="M121.689,52.002l-20.552-0.999c-4.016-0.195-8.007,0.734-11.523,2.686l-15.131,8.393l-1.788-7.095
		c0,0,1.97-3.086,1.97-12.425c0,0,11.389-5.398,12.015-11.218c0,0,10.045,2.073,15.808-1.253c0,0,7.904,4.511,12.401,5.433
		c1.8,0.375,3.304,1.594,3.896,3.325c1.242,3.656,3.451,9.543,6.31,15.125v0.011l1.821,7.209c0.398,1.56,0.57,3.12,0.536,4.657
		c-0.035,2.779-0.741,5.467-1.982,7.858h-0.012C118.637,66.888,121.689,52.002,121.689,52.002z"/>
	<path fill="#008390" d="M182.767,210.89l-11.21,9.51l-2.821,2.355c-0.933,0.781-1.888,1.588-2.917,2.286
		c-2.053,1.405-4.319,2.503-6.702,3.241c-1.191,0.369-2.412,0.648-3.648,0.836c-1.263,0.163-2.405,0.277-3.591,0.556
		c-1.171,0.261-2.322,0.609-3.439,1.041c-1.108,0.43-2.218,0.972-3.339,1.464l-6.702,3.016c-1.115,0.492-2.221,1.034-3.409,1.47
		c-1.175,0.437-2.386,0.783-3.613,1.036c-1.221,0.255-2.498,0.382-3.706,0.479l-3.659,0.321l-7.321,0.642l-7.333,0.636
		c-2.496,0.168-5.015-0.055-7.437-0.661c-9.466-2.653-18.857-5.369-28.252-8.187l14.252,3.601l14.21,3.701
		c2.346,0.525,4.765,0.692,7.157,0.527l7.304-0.688l7.317-0.695l3.657-0.348c1.234-0.106,2.397-0.234,3.574-0.482
		c1.174-0.232,2.329-0.555,3.453-0.963c1.116-0.399,2.219-0.926,3.348-1.416l6.723-2.968c1.126-0.484,2.222-1.011,3.402-1.46
		c1.17-0.442,2.373-0.797,3.596-1.06c1.205-0.274,2.504-0.408,3.672-0.536c1.191-0.153,2.369-0.397,3.526-0.727
		c2.312-0.66,4.526-1.673,6.547-2.993c1.015-0.653,1.951-1.411,2.913-2.18l2.875-2.289L182.767,210.89z"/>
	<path fill="#008390" d="M90.621,205.188c-1.604,0.595-3.222,1.143-4.835,1.708c-1.611,0.573-3.239,1.088-4.86,1.629
		c-3.24,1.084-6.494,2.123-9.755,3.137l0.068-0.024c-4.657,2.125-9.33,4.218-14.034,6.239c-4.714,1.998-9.43,3.993-14.218,5.83
		c4.552-2.359,9.175-4.561,13.801-6.758c4.636-2.175,9.303-4.277,13.985-6.348l0.037-0.017l0.032-0.01
		c3.276-0.964,6.561-1.898,9.859-2.792c1.649-0.447,3.289-0.922,4.948-1.337C87.306,206.022,88.957,205.581,90.621,205.188z"/>
	<path fill="#008390" d="M23.242,174.062c2.465-0.12,4.93-0.177,7.395-0.265c2.464-0.072,4.93-0.104,7.395-0.158l0.042-0.002
		l0.061,0.014c4.743,1.049,9.445,2.258,14.169,3.379l-0.138-0.016c2.944-0.036,5.888,0.001,8.833,0.018l8.833,0.067
		c5.888,0.11,11.777,0.218,17.666,0.484c-5.889,0.268-11.777,0.375-17.666,0.484l-8.833,0.068c-2.945,0.017-5.889,0.054-8.833,0.019
		l-0.077-0.002l-0.061-0.017c-4.699-1.226-9.419-2.362-14.098-3.662l0.102,0.013c-2.465-0.054-4.93-0.086-7.395-0.159
		C28.172,174.241,25.707,174.184,23.242,174.062z"/>
	<path fill="#008390" d="M38.383,139.555l2.878,4.396l2.83,4.417l5.648,8.832c1.956,2.97,3.282,6.418,3.724,9.957
		c0.414,3.533,0.084,7.188-1.298,10.427c0.463-1.689,0.711-3.418,0.748-5.15c0.065-1.726-0.025-3.455-0.348-5.142
		c-0.64-3.371-1.908-6.592-3.821-9.456c-1.87-2.964-3.707-5.947-5.426-8.999C41.586,145.79,39.899,142.719,38.383,139.555z"/>
	<path fill="#008390" d="M74.651,120.541c-1.337,3.277-2.79,6.497-4.261,9.707c-1.457,3.216-2.999,6.393-4.541,9.567
		c-1.566,3.164-3.136,6.327-4.788,9.448l-2.481,4.681c-0.865,1.541-1.694,3.101-2.592,4.626c0.657-1.643,1.383-3.252,2.073-4.88
		l2.185-4.827c1.459-3.216,3-6.393,4.544-9.567c1.568-3.163,3.137-6.324,4.789-9.446C71.22,126.721,72.877,123.603,74.651,120.541z"
		/>
	<path fill="#008390" d="M102.469,127.936l-2.479,5.508c-0.828,1.831-1.638,3.671-2.427,5.518
		c-1.571,3.698-3.106,7.405-4.517,11.156c-1.452,3.738-2.684,7.549-3.759,11.398c-1.03,3.852-1.882,7.81-1.608,11.843
		c-0.117-0.994-0.271-2.002-0.326-3.015l0.072-3.043l0.4-3.015c0.146-1.005,0.389-1.987,0.579-2.984
		c0.881-3.955,2.1-7.826,3.538-11.6c1.45-3.771,3.024-7.493,4.797-11.116C98.506,134.96,100.368,131.38,102.469,127.936z"/>
	<path fill="#008390" d="M176.413,122.654c-2.306,1.116-4.563,2.311-6.742,3.645c-1.108,0.63-2.172,1.337-3.259,2.001
		c-1.066,0.695-2.11,1.428-3.166,2.139c-4.162,2.933-8.118,6.153-11.715,9.74c-0.888,0.906-1.847,1.748-2.682,2.704l-2.533,2.844
		c-0.839,0.954-1.563,2.001-2.351,2.997l-1.161,1.51c-0.373,0.514-0.709,1.053-1.066,1.579l-2.108,3.179l-1.83,3.351
		c-0.31,0.558-0.64,1.105-0.928,1.672l-0.779,1.748c-0.514,1.168-1.043,2.332-1.582,3.497c1.635-4.838,3.592-9.657,6.469-13.945
		c2.756-4.351,6.037-8.378,9.727-11.977c3.716-3.567,7.719-6.845,12.034-9.647C167.06,126.904,171.605,124.441,176.413,122.654z"/>
	<path fill="#008390" d="M148.242,108.218c-1.384,1.615-2.725,3.258-3.947,4.99c-1.269,1.696-2.454,3.45-3.574,5.24
		c-2.228,3.588-4.215,7.318-5.837,11.201l-1.171,2.931l-0.958,3.005c-0.364,0.99-0.559,2.025-0.812,3.045
		c-0.223,1.027-0.545,2.036-0.665,3.082l-0.488,3.124c-0.113,1.046-0.125,2.101-0.2,3.155l-0.11,1.583l0.055,1.584
		c0.049,1.058,0.08,2.119,0.104,3.187c-0.666-4.19-0.918-8.521-0.259-12.772c0.619-4.238,1.709-8.438,3.416-12.377
		c1.682-3.946,3.732-7.729,6.172-11.244C142.404,114.443,145.111,111.108,148.242,108.218z"/>
	<path fill="#008390" d="M111.039,195.895c1.924-0.604,3.936-0.885,5.946-1.104c2.017-0.142,4.049-0.165,6.074-0.019
		c4.045,0.298,8.078,1.174,11.844,2.736c0.972,0.318,1.854,0.843,2.777,1.268c0.915,0.445,1.843,0.868,2.687,1.441l2.583,1.621
		c0.821,0.599,1.607,1.244,2.401,1.872l1.188,0.948c0.391,0.32,0.733,0.699,1.103,1.045l2.171,2.117
		c0.733,0.696,1.304,1.545,1.961,2.308c0.64,0.778,1.268,1.565,1.885,2.355c-1.459-1.396-2.765-2.918-4.253-4.252l-2.255-1.968
		c-0.381-0.321-0.737-0.674-1.138-0.968l-1.219-0.865l-2.422-1.733l-2.565-1.512c-0.835-0.54-1.737-0.95-2.633-1.373
		c-0.903-0.404-1.764-0.908-2.711-1.209c-3.65-1.549-7.554-2.427-11.488-2.933C119.031,195.205,115.003,195.231,111.039,195.895z"/>
	<path fill="#008390" d="M121.962,188.736c1.117-0.854,2.397-1.463,3.707-1.957c1.313-0.495,2.678-0.851,4.063-1.085
		c2.768-0.44,5.629-0.431,8.341,0.261l-4.114,0.369c-1.356,0.128-2.698,0.316-4.034,0.535c-1.339,0.203-2.66,0.496-3.985,0.797
		C124.614,187.974,123.296,188.322,121.962,188.736z"/>
	<path fill="#6A6A69" d="M66.077,216.184c-0.319,1.129-0.352,2.28-0.35,3.412c0.029,1.135,0.167,2.262,0.38,3.379
		c0.181,1.122,0.503,2.222,0.797,3.332l1.03,3.33c-0.333-0.485-0.615-0.999-0.926-1.502c-0.26-0.526-0.525-1.056-0.756-1.598
		c-0.438-1.097-0.809-2.229-1.017-3.402c-0.205-1.171-0.311-2.37-0.197-3.564C65.152,218.387,65.438,217.184,66.077,216.184z"/>
	<path fill="#008390" d="M46.997,130.57c0.857,2.542,1.539,5.132,2.173,7.732c0.647,2.599,1.158,5.229,1.625,7.866
		c0.445,2.642,0.813,5.301,1.003,7.981c0.102,1.338,0.145,2.683,0.176,4.025l-0.079,2.016c-0.05,0.672-0.139,1.341-0.224,2.002
		l-0.089-2l-0.186-1.989c-0.147-1.323-0.291-2.642-0.5-3.957c-0.399-2.63-0.795-5.26-1.264-7.881l-1.347-7.881l-0.673-3.948
		L46.997,130.57z"/>
	<path fill="#008390" d="M153.659,275.326c0.275-1.939,0.567-3.87,0.771-5.813c0.251-1.937,0.461-3.877,0.64-5.817
		c0.35-3.884,0.634-7.77,0.762-11.66c0.16-3.89,0.084-7.781-0.065-11.67c-0.123-1.941-0.227-3.888-0.485-5.819
		c-0.13-1.952-0.54-3.857-0.783-5.807c1.087,3.764,1.79,7.646,2.176,11.559c0.363,3.913,0.473,7.851,0.338,11.778
		c-0.16,3.924-0.478,7.841-1.043,11.725C155.408,267.683,154.702,271.548,153.659,275.326z"/>
	<path fill="#008390" d="M58.89,265.746c3.668-2.729,7.497-5.23,11.377-7.647c3.883-2.414,7.875-4.649,11.889-6.843
		c4.068-2.091,8.175-4.114,12.381-5.923c4.225-1.76,8.524-3.356,12.936-4.562c-2.112,0.883-4.258,1.647-6.329,2.605
		c-2.11,0.855-4.164,1.846-6.235,2.786c-4.105,1.968-8.193,3.972-12.201,6.136c-4.043,2.097-8.009,4.337-11.979,6.577
		c-1.988,1.116-3.962,2.256-5.927,3.413C62.814,263.41,60.863,264.594,58.89,265.746z"/>
	<path fill="#6A6A69" d="M97.108,182.908c0.064,1.729,0.144,3.439,0.271,5.147c0.141,1.705,0.293,3.404,0.524,5.094
		c0.215,1.691,0.541,3.36,0.893,5.027c0.383,1.662,0.891,3.286,1.466,4.921c-0.907-1.474-1.595-3.085-2.124-4.741
		c-0.516-1.661-0.873-3.369-1.113-5.09c-0.213-1.723-0.345-3.456-0.325-5.188C96.715,186.348,96.807,184.615,97.108,182.908z"/>
	<path fill="#FFFFFF" d="M119.323,55.058c-0.146,0-0.293-0.055-0.408-0.164c-0.236-0.226-0.242-0.6-0.018-0.834l4.186-4.361
		c0.227-0.236,0.599-0.242,0.836-0.018c0.234,0.225,0.242,0.6,0.017,0.834l-4.186,4.361
		C119.633,54.998,119.479,55.058,119.323,55.058z"/>
	<path fill="#FFFFFF" d="M125.458,73.709c-6.821-6.821-3.769-21.707-3.769-21.707l-20.56-1c-4.011-0.194-7.996,0.734-11.507,2.681
		l-15.139,8.398l2.949,11.627v0.011c1.504,5.889,5.763,10.33,11.059,12.289c3.246,1.207,6.89,1.468,10.5,0.558l15.079-3.815
		c3.622-0.922,6.686-2.88,8.974-5.489c0.945-1.082,1.767-2.278,2.426-3.554H125.458z"/>
	<path fill="#40BED0" d="M70.233,43.988c1.621-4.008,4.225-7.623,7.418-10.601c3.195-2.98,7.105-5.259,11.345-6.452
		c4.236-1.203,8.719-1.407,13.026-0.744c2.162,0.293,4.274,0.833,6.355,1.436c1.03,0.341,2.045,0.726,3.062,1.085
		c1,0.415,1.991,0.847,2.977,1.283c-1.034-0.318-2.06-0.649-3.078-0.987c-1.041-0.273-2.074-0.571-3.113-0.823
		c-2.088-0.483-4.188-0.915-6.313-1.093c-4.231-0.436-8.532-0.199-12.59,0.979c-4.078,1.118-7.827,3.26-11.069,5.991
		c-1.626,1.369-3.112,2.911-4.441,4.585C72.448,40.295,71.25,42.086,70.233,43.988z"/>
	<path fill="#742E20" d="M114.366,82.672c-2.437,5.751-8.234,16.229-19.486,20.739l-4.977-11.799v-0.011l-1.412-5.592
		c3.246,1.207,6.89,1.468,10.5,0.558l15.079-3.815C114.174,82.729,114.264,82.695,114.366,82.672z"/>
</g>
</svg>
