<?xml version="1.0" encoding="utf-8"?>
<!-- Generator: Adobe Illustrator 16.0.0, SVG Export Plug-In . SVG Version: 6.00 Build 0)  -->
<!DOCTYPE svg PUBLIC "-//W3C//DTD SVG 1.1//EN" "http://www.w3.org/Graphics/SVG/1.1/DTD/svg11.dtd">
<svg version="1.1" id="Capa_1" xmlns="http://www.w3.org/2000/svg" xmlns:xlink="http://www.w3.org/1999/xlink" x="0px" y="0px"
	 width="299px" height="287.685px" viewBox="104.5 117.5 299 287.685" enable-background="new 104.5 117.5 299 287.685"
	 xml:space="preserve">
<g>
	<path fill="#FFFFFF" d="M398.142,252.284c-0.599-7.767-4.111-14.708-9.887-19.544c-5.406-4.526-12.202-6.636-19.135-5.941
		c-9.456,0.948-17.783,7.133-21.888,16.038l-8.593,0.759l-8.482-2.376c-0.658-0.185-1.189-0.707-1.421-1.396
		c-2.465-7.332-5.982-14.255-10.465-20.597l3.002-8.07l9.474-10.246c5.387-0.181,10.397-2.555,13.99-6.697
		c6.502-7.494,6.231-18.977-0.616-26.144c-3.759-3.933-8.82-6.089-14.233-6.031c-5.348,0.043-10.493,2.318-14.121,6.243
		c-3.554,3.844-5.374,8.857-5.147,14.018l-9.474,10.247l-7.938,3.682c-11.841-6.921-25.285-10.664-39.039-10.863l-5.19-8.278
		l-1.83-9.097c7.293-5.963,10.7-15.225,8.752-24.35c-2.925-13.692-17.024-22.611-31.428-19.879
		c-7.252,1.374-13.422,5.407-17.374,11.354c-3.702,5.57-4.981,12.198-3.6,18.66c1.84,8.617,8.087,15.569,16.585,18.669l2.022,10.05
		l-1.608,9.795c-7.327,3.277-14.084,7.622-20.138,12.947l-5.949-1.061l-6.724-5.071c-0.96-5.106-3.909-9.601-8.288-12.54
		c-8.173-5.485-19.162-3.984-25.563,3.489c-3.539,4.13-5.165,9.375-4.581,14.763c0.576,5.315,3.354,10.208,7.621,13.427
		c4.411,3.329,10.021,4.597,15.392,3.566l5.633,4.25l2.527,5.171c0.112,0.228,0.115,0.492,0.009,0.724
		c-4.819,10.479-7.262,21.666-7.262,33.251c0,2.145,0.089,4.324,0.264,6.479c0.027,0.332-0.104,0.636-0.352,0.813l-9.514,6.778
		l-10.86,3.416c-6.667-5.158-15.484-6.716-23.599-4.034c-0.162,0.053-0.322,0.11-0.482,0.17l-0.134,0.05
		c-2.235,0.805-3.395,3.271-2.59,5.506s3.268,3.396,5.506,2.59l0.201-0.073c0.068-0.025,0.136-0.05,0.203-0.073
		c5.926-1.959,12.42-0.502,16.948,3.804c0.812,0.771,1.877,1.185,2.964,1.185c0.432,0,0.867-0.065,1.291-0.199l13.784-4.337
		c0.431-0.134,0.837-0.337,1.206-0.6l10.069-7.174c2.699-1.923,4.208-5.188,3.936-8.519c-0.156-1.925-0.235-3.869-0.235-5.781
		c0-10.336,2.178-20.314,6.476-29.658c1.189-2.586,1.155-5.537-0.095-8.095l-2.979-6.098c-0.297-0.608-0.734-1.137-1.274-1.544
		l-8.099-6.111c-1.116-0.842-2.573-1.089-3.903-0.663c-3.359,1.076-7.039,0.455-9.845-1.662c-2.413-1.82-3.921-4.479-4.248-7.487
		c-0.326-3.004,0.584-5.929,2.562-8.238c3.505-4.092,9.757-4.945,14.234-1.941c2.76,1.853,4.502,4.809,4.779,8.113
		c0.102,1.22,0.718,2.339,1.696,3.076l8.971,6.768c0.54,0.408,1.169,0.683,1.836,0.801l9.038,1.611
		c1.33,0.237,2.692-0.164,3.681-1.083c6.297-5.843,13.494-10.454,21.393-13.705c1.379-0.567,2.366-1.81,2.608-3.281l2.118-12.896
		c0.084-0.513,0.075-1.036-0.027-1.545l-2.679-13.317c-0.325-1.618-1.547-2.906-3.144-3.317
		c-6.654-1.714-11.619-6.678-12.959-12.954c-0.893-4.179-0.057-8.477,2.352-12.102c2.659-4.001,6.854-6.722,11.811-7.662
		c9.852-1.865,19.455,4.064,21.41,13.222c1.4,6.559-1.518,13.268-7.433,17.092c-1.484,0.959-2.23,2.729-1.882,4.462l2.528,12.563
		c0.103,0.51,0.296,0.996,0.572,1.436l6.214,9.913c1.2,1.915,3.265,3.057,5.534,3.057h0.002c12.949,0,25.641,3.529,36.7,10.207
		c1.855,1.119,4.131,1.246,6.088,0.339l9.729-4.513c0.508-0.236,0.966-0.569,1.347-0.981l11.358-12.286
		c0.893-0.964,1.294-2.281,1.094-3.579c-0.511-3.295,0.492-6.584,2.747-9.024c2.052-2.219,4.849-3.455,7.872-3.48
		c3.013-0.001,5.842,1.172,7.942,3.371c3.812,3.99,3.96,10.385,0.338,14.56c-2.272,2.619-5.559,3.97-9.02,3.71
		c-1.309-0.1-2.591,0.407-3.482,1.37l-11.356,12.286c-0.382,0.412-0.679,0.895-0.875,1.42l-3.692,9.929
		c-0.758,2.041-0.442,4.315,0.845,6.083c4.28,5.88,7.618,12.337,9.923,19.193c1.14,3.392,3.854,5.986,7.258,6.94l9.237,2.588
		c0.501,0.141,1.021,0.188,1.539,0.143l11.997-1.06c1.688-0.149,3.131-1.274,3.686-2.874c2.485-7.156,8.641-12.235,15.683-12.941
		c4.607-0.462,9.137,0.95,12.754,3.978c3.984,3.336,6.41,8.169,6.829,13.606c0.277,3.594-0.372,7.202-1.877,10.436
		c-1.004,2.154-0.07,4.713,2.085,5.717c2.154,1.002,4.712,0.07,5.716-2.085c2.125-4.571,3.044-9.665,2.653-14.729H398.142z"/>
	<path fill="#FFFFFF" d="M376.486,273.588c-1.207,0.396-2.453,0.662-3.702,0.787c-7.445,0.746-14.405-3.378-17.736-10.506
		c-0.766-1.639-2.475-2.625-4.276-2.465l-11.263,0.996c-0.518,0.045-1.021,0.185-1.491,0.41l-8.5,4.102
		c-3.221,1.553-5.443,4.622-5.943,8.209c-0.746,5.336-2.105,10.589-4.038,15.609c-1.154,2.998-0.926,6.31,0.627,9.085l3.027,5.415
		c0.33,0.591,0.796,1.095,1.358,1.473l8.426,5.651c1.161,0.779,2.628,0.945,3.935,0.447c3.294-1.261,7.002-0.845,9.922,1.114
		c2.509,1.684,4.164,4.255,4.656,7.239c0.49,2.98-0.255,5.952-2.103,8.367c-3.274,4.28-9.468,5.479-14.104,2.727
		c-2.858-1.696-4.763-4.553-5.221-7.837c-0.17-1.211-0.85-2.294-1.864-2.976l-9.334-6.261c-0.561-0.378-1.205-0.617-1.877-0.698
		l-5.872-0.714c-3.286-0.4-6.562,0.695-8.986,3.006c-4.702,4.481-9.985,8.3-15.698,11.346c-3.322,1.771-5.534,5.229-5.772,9.021
		l-0.745,11.9c-0.026,0.443,0.014,0.889,0.122,1.319l3.693,14.654c0.376,1.497,1.526,2.678,3.013,3.093
		c5.01,1.4,8.91,5.398,10.179,10.431c0.967,3.832,0.356,7.796-1.721,11.161c-2.071,3.363-5.343,5.689-9.208,6.551
		c-7.208,1.605-14.645-2.627-16.928-9.636c-1.724-5.294-0.331-11.001,3.635-14.896c1.09-1.07,1.531-2.639,1.157-4.121l-3.715-14.744
		c-0.108-0.43-0.284-0.842-0.519-1.22l-5.728-9.214c-2.321-3.734-6.366-5.963-10.863-5.963c-0.004,0-0.006,0-0.01,0
		c-4.652,0-9.31-0.455-13.843-1.352c-4.322-0.856-8.693,0.523-11.692,3.688l-7.573,7.992c-0.306,0.323-0.56,0.691-0.753,1.091
		l-8.477,17.589c-0.574,1.191-0.569,2.582,0.015,3.768c1.485,3.017,1.502,6.479,0.047,9.499c-1.313,2.726-3.627,4.727-6.515,5.634
		c-2.886,0.908-5.936,0.585-8.588-0.907c-4.666-2.626-6.729-8.563-4.699-13.519c1.354-3.304,4.122-5.661,7.593-6.469
		c1.268-0.295,2.335-1.149,2.901-2.322l8.532-17.702c0.193-0.399,0.323-0.828,0.384-1.269l1.671-11.884
		c0.518-3.682-0.939-7.409-3.801-9.73c-6.448-5.229-11.893-11.468-16.182-18.546c-1.879-3.1-5.321-5.048-8.983-5.082l-11.863-0.114
		c-0.453-0.006-0.901,0.063-1.333,0.198l-12.988,4.086c-1.624,0.511-2.794,1.932-2.985,3.624
		c-0.747,6.638-5.342,12.22-11.706,14.222c-8.778,2.762-18.247-2.106-21.104-10.853c-1.136-3.478-1.099-7.167,0.107-10.67
		c0.773-2.247-0.421-4.696-2.668-5.47c-2.248-0.774-4.695,0.422-5.469,2.668c-1.82,5.29-1.873,10.872-0.15,16.145
		c3.496,10.699,13.541,17.556,24.279,17.556c2.515,0,5.07-0.376,7.585-1.167c8.691-2.736,15.195-9.886,17.196-18.638l9.836-3.093
		l11.182,0.106c0.706,0.006,1.359,0.365,1.707,0.938c4.804,7.928,10.9,14.916,18.12,20.771c0.532,0.43,0.801,1.139,0.701,1.848
		l-1.579,11.221l-7.413,15.381c-5.192,1.837-9.417,5.823-11.532,10.98c-3.709,9.047-0.081,19.486,8.44,24.281
		c4.745,2.672,10.211,3.245,15.388,1.617c5.104-1.604,9.364-5.288,11.687-10.106c2.292-4.756,2.551-10.12,0.781-15.017l7.343-15.235
		l7.112-7.505c0.957-1.01,2.367-1.445,3.775-1.167c5.083,1.006,10.303,1.517,15.564,1.517h0.004c1.458,0,2.771,0.71,3.512,1.901
		l5.373,8.645l2.988,11.855c-4.975,6.071-6.543,14.213-4.065,21.817c3.12,9.581,12.273,15.91,22.062,15.91
		c1.629,0,3.277-0.175,4.917-0.541c6.152-1.37,11.36-5.075,14.664-10.434c3.304-5.359,4.276-11.675,2.737-17.778
		c-1.808-7.179-6.975-13.034-13.761-15.781l-2.96-11.746l0.704-11.23c0.052-0.835,0.524-1.587,1.232-1.965
		c6.4-3.414,12.316-7.69,17.587-12.709c0.554-0.529,1.287-0.78,2.01-0.694l4.851,0.59l6.994,4.692
		c1.242,5.045,4.434,9.37,8.971,12.062c8.463,5.021,19.353,2.917,25.329-4.9c3.306-4.321,4.639-9.646,3.756-14.995
		c-0.87-5.273-3.913-10.007-8.353-12.984c-4.588-3.078-10.26-4.033-15.565-2.707l-5.86-3.932l-2.523-4.514
		c-0.301-0.537-0.341-1.191-0.107-1.794c2.169-5.633,3.692-11.525,4.529-17.512c0.102-0.731,0.536-1.348,1.161-1.648l7.793-3.759
		l7.65-0.678c5.317,8.803,14.807,13.729,24.941,12.712c1.87-0.188,3.732-0.583,5.534-1.176c2.258-0.743,3.485-3.175,2.741-5.433
		C381.175,274.072,378.744,272.846,376.486,273.588L376.486,273.588z"/>
	<path fill="#FFFFFF" d="M266.845,206.559c-4.511-1.059-9.161-1.596-13.823-1.596c-33.217,0-60.242,27.024-60.242,60.242
		c0,33.219,27.024,60.243,60.242,60.243c33.219,0,60.243-27.024,60.243-60.243c0-20.77-10.49-39.81-28.063-50.933
		c-2.008-1.272-4.667-0.673-5.937,1.333c-1.271,2.008-0.674,4.666,1.334,5.937c15.066,9.538,24.062,25.861,24.062,43.663
		c0,28.475-23.164,51.639-51.639,51.639c-28.473,0-51.638-23.164-51.638-51.639c0-28.474,23.165-51.638,51.638-51.638
		c4,0,7.99,0.461,11.856,1.369c2.313,0.545,4.629-0.891,5.172-3.205S269.158,207.102,266.845,206.559L266.845,206.559z"/>
	<path fill="#FFFFFF" d="M158.896,167.805c11.157,0,20.233-9.077,20.233-20.233s-9.076-20.233-20.233-20.233
		c-11.157,0-20.233,9.077-20.233,20.233S147.739,167.805,158.896,167.805L158.896,167.805z M158.896,135.944
		c6.412,0,11.628,5.216,11.628,11.627c0,6.412-5.216,11.628-11.628,11.628c-6.412,0-11.629-5.216-11.629-11.628
		C147.267,141.161,152.484,135.944,158.896,135.944L158.896,135.944z"/>
	<path fill="#FFFFFF" d="M154.541,342.74c-8.174,0-14.825,6.65-14.825,14.824c0,8.175,6.65,14.826,14.825,14.826
		c8.174,0,14.825-6.651,14.825-14.826C169.366,349.391,162.715,342.74,154.541,342.74z M154.541,363.786
		c-3.43,0-6.221-2.791-6.221-6.222c0-3.43,2.79-6.22,6.221-6.22c3.43,0,6.22,2.79,6.22,6.22
		C160.761,360.995,157.971,363.786,154.541,363.786z"/>
	<path fill="#FFFFFF" d="M347.741,355.049c-10.919,0-19.802,8.882-19.802,19.802c0,10.919,8.882,19.801,19.802,19.801
		c10.919,0,19.801-8.882,19.801-19.801C367.542,363.931,358.659,355.049,347.741,355.049z M347.741,386.046
		c-6.174,0-11.197-5.021-11.197-11.195c0-6.175,5.021-11.198,11.197-11.198c6.174,0,11.196,5.023,11.196,11.198
		C358.938,381.024,353.913,386.046,347.741,386.046z"/>
	<path fill="#FFFFFF" d="M254.603,249.779c0-10.34-8.412-18.752-18.752-18.752c-10.34,0-18.752,8.412-18.752,18.752
		s8.412,18.751,18.752,18.751C246.19,268.53,254.603,260.117,254.603,249.779z M235.851,259.926
		c-5.596,0-10.147-4.552-10.147-10.147c0-5.596,4.552-10.147,10.147-10.147c5.595,0,10.147,4.552,10.147,10.147
		C245.998,255.374,241.446,259.926,235.851,259.926z"/>
	<path fill="#FFFFFF" d="M247.45,308.797c7.796,0,14.138-6.342,14.138-14.138c0-7.795-6.342-14.138-14.138-14.138
		c-7.795,0-14.138,6.343-14.138,14.138C233.313,302.455,239.654,308.797,247.45,308.797z M247.45,289.126
		c3.051,0,5.533,2.483,5.533,5.534c0,3.05-2.482,5.532-5.533,5.532s-5.533-2.482-5.533-5.532
		C241.917,291.609,244.399,289.126,247.45,289.126z"/>
	<path fill="#FFFFFF" d="M265.771,265.205c0,6.927,5.635,12.562,12.561,12.562c6.927,0,12.562-5.635,12.562-12.562
		c0-6.926-5.635-12.561-12.562-12.561C271.406,252.644,265.771,258.279,265.771,265.205L265.771,265.205z M278.332,261.249
		c2.182,0,3.957,1.774,3.957,3.956c0,2.181-1.775,3.956-3.957,3.956s-3.956-1.775-3.956-3.956
		C274.376,263.023,276.15,261.249,278.332,261.249z"/>
</g>
</svg>
